<?xml version="1.0" encoding="UTF-8" standalone="no"?>
<!-- Created with Inkscape (http://www.inkscape.org/) -->

<svg
   xmlns:dc="http://purl.org/dc/elements/1.1/"
   xmlns:cc="http://creativecommons.org/ns#"
   xmlns:rdf="http://www.w3.org/1999/02/22-rdf-syntax-ns#"
   xmlns:svg="http://www.w3.org/2000/svg"
   xmlns="http://www.w3.org/2000/svg"
   xmlns:sodipodi="http://sodipodi.sourceforge.net/DTD/sodipodi-0.dtd"
   xmlns:inkscape="http://www.inkscape.org/namespaces/inkscape"
   width="10.764283mm"
   height="10.7643mm"
   viewBox="0 0 10.764283 10.7643"
   version="1.1"
   id="svg498"
   inkscape:version="0.92.5 (2060ec1f9f, 2020-04-08)"
   sodipodi:docname="botton_top.svg">
  <defs
     id="defs492" />
  <sodipodi:namedview
     id="base"
     pagecolor="#ffffff"
     bordercolor="#666666"
     borderopacity="1.0"
     inkscape:pageopacity="0.0"
     inkscape:pageshadow="2"
     inkscape:zoom="19.4664"
     inkscape:cx="39.052802"
     inkscape:cy="23.86459"
     inkscape:document-units="mm"
     inkscape:current-layer="layer1"
     showgrid="false"
     inkscape:window-width="1440"
     inkscape:window-height="837"
     inkscape:window-x="-8"
     inkscape:window-y="-8"
     inkscape:window-maximized="1"
     fit-margin-top="0"
     fit-margin-left="0"
     fit-margin-right="0"
     fit-margin-bottom="0" />
  <metadata
     id="metadata495">
    <rdf:RDF>
      <cc:Work
         rdf:about="">
        <dc:format>image/svg+xml</dc:format>
        <dc:type
           rdf:resource="http://purl.org/dc/dcmitype/StillImage" />
        <dc:title />
      </cc:Work>
    </rdf:RDF>
  </metadata>
  <g
     inkscape:label="Layer 1"
     inkscape:groupmode="layer"
     id="layer1"
     transform="translate(-64.573132,-135.9387)">
    <path
       style="opacity:1;fill:#8888ab;fill-opacity:0.94117647;stroke:none;stroke-width:0.26458338;stroke-linecap:round;stroke-miterlimit:4;stroke-dasharray:none;stroke-opacity:1"
       d="m 69.955264,135.9387 a 5.3820714,5.3820711 0 0 0 -5.382132,5.38216 5.3820714,5.3820711 0 0 0 5.382132,5.38214 5.3820714,5.3820711 0 0 0 5.382151,-5.38214 5.3820714,5.3820711 0 0 0 -5.382151,-5.38216 z m 0.09544,2.5242 h 4.77e-4 c 0.0019,0 0.0093,-4e-5 0.0093,0 0.233583,-0.002 0.467391,0.0855 0.646386,0.26456 l 0.196354,0.19583 c 0.03595,0.0359 0.06723,0.0749 0.09626,0.11483 l 3.144667,3.14465 c 0.352976,0.353 0.352976,0.92177 0,1.27478 l -0.195738,0.19586 c -0.353032,0.35299 -0.921821,0.35299 -1.274807,0 l -2.612708,-2.61271 -2.613157,2.61271 c -0.353013,0.35299 -0.921317,0.35299 -1.274349,0 l -0.195737,-0.19586 c -0.353051,-0.35301 -0.353051,-0.92178 0,-1.27478 l 3.144605,-3.14465 c 0.02867,-0.0401 0.06014,-0.079 0.09627,-0.11483 l 0.195747,-0.19583 c 0.176408,-0.1765 0.40705,-0.26456 0.637394,-0.26456 z"
       id="path6143"
       inkscape:connector-curvature="0" />
  </g>
</svg>
