<?xml version="1.0" encoding="UTF-8" standalone="no"?>
<!-- Created with Inkscape (http://www.inkscape.org/) -->

<svg
   width="15.886625mm"
   height="13.893044mm"
   viewBox="0 0 15.886625 13.893044"
   version="1.1"
   id="svg2955"
   xmlns="http://www.w3.org/2000/svg"
   xmlns:svg="http://www.w3.org/2000/svg">
  <defs
     id="defs2952" />
  <g
     id="layer1"
     transform="translate(-95.251603,-53.460254)">
    <g
       aria-label="ïµ"
       transform="matrix(0.6894383,0,0,0.6894383,-47.648556,-230.15468)"
       id="flowRoot819"
       style="font-weight:bold;font-size:23.03px;line-height:1;font-family:'Font Awesome 6 Pro';-inkscape-font-specification:'Font Awesome 6 Pro Bold';letter-spacing:0px;word-spacing:0px;baseline-shift:baseline;vector-effect:none;fill:#2c2f37;stroke-width:0.220954">
      <path
         d="m 210.6568,414.11482 q 3.37353,-2.7438 8.14146,-2.7438 4.76793,0 8.14147,2.7438 3.37353,2.74381 3.37353,6.61213 0,3.86832 -3.37353,6.61213 -3.37354,2.74381 -8.14147,2.74381 -2.5189,0 -4.81291,-0.85463 -2.92373,2.29401 -6.34224,2.29401 -0.09,0 -0.13495,-0.045 -0.045,0 -0.13494,-0.045 -0.045,-0.045 -0.045,-0.13495 -0.13494,-0.2249 0.045,-0.40482 0.17992,-0.13494 0.53977,-0.58475 0.40482,-0.4498 1.03455,-1.57431 0.62973,-1.12451 0.89961,-2.11408 -2.56389,-2.56389 -2.56389,-5.89245 0,-3.86832 3.37354,-6.61213 z"
         id="path2984" />
    </g>
  </g>
</svg>
