<?xml version="1.0" encoding="UTF-8" standalone="no"?>
<!-- Created with Inkscape (http://www.inkscape.org/) -->

<svg
   width="16.045483mm"
   height="14.039797mm"
   viewBox="0 0 16.045483 14.039797"
   version="1.1"
   id="svg2664"
   inkscape:version="1.2.2 (732a01da63, 2022-12-09)"
   sodipodi:docname="ph.svg"
   xmlns:inkscape="http://www.inkscape.org/namespaces/inkscape"
   xmlns:sodipodi="http://sodipodi.sourceforge.net/DTD/sodipodi-0.dtd"
   xmlns="http://www.w3.org/2000/svg"
   xmlns:svg="http://www.w3.org/2000/svg">
  <sodipodi:namedview
     id="namedview2666"
     pagecolor="#ffffff"
     bordercolor="#666666"
     borderopacity="1.0"
     inkscape:showpageshadow="2"
     inkscape:pageopacity="0.0"
     inkscape:pagecheckerboard="0"
     inkscape:deskcolor="#d1d1d1"
     inkscape:document-units="mm"
     showgrid="false"
     inkscape:zoom="4.7572176"
     inkscape:cx="60.119176"
     inkscape:cy="26.48607"
     inkscape:window-width="1440"
     inkscape:window-height="837"
     inkscape:window-x="-8"
     inkscape:window-y="-8"
     inkscape:window-maximized="1"
     inkscape:current-layer="flowRoot843" />
  <defs
     id="defs2661" />
  <g
     inkscape:label="Слой 1"
     inkscape:groupmode="layer"
     id="layer1"
     transform="translate(-114.0012,-130.08404)">
    <g
       aria-label=""
       transform="matrix(0.69672088,0,0,0.69672088,-90.192446,-256.62457)"
       id="flowRoot843"
       style="font-weight:bold;font-size:23.03px;line-height:1;font-family:'last ninja';-inkscape-font-specification:'last ninja Bold';letter-spacing:0px;word-spacing:0px;baseline-shift:baseline;vector-effect:none;fill:#2c2f37;stroke-width:0.218644">
      <path
         d="m 301.80434,555.04094 h 5.53259 c 0.94459,0 1.75424,0.62972 2.02413,1.48435 l 0.49478,1.3944 h 3.37354 c 1.57431,0 2.87875,1.30443 2.87875,2.87875 v 11.515 c 0,1.61929 -1.30444,2.87875 -2.87875,2.87875 h -17.2725 c -1.6193,0 -2.87876,-1.25946 -2.87876,-2.87875 v -11.515 c 0,-1.57432 1.25946,-2.87875 2.87876,-2.87875 h 3.32855 l 0.49479,-1.3944 c 0.26988,-0.85463 1.07953,-1.48435 2.02412,-1.48435 z m 2.78879,15.83312 c 2.38396,0 4.31812,-1.93416 4.31812,-4.31812 0,-2.38397 -1.93416,-4.31813 -4.31812,-4.31813 -2.42895,0 -4.31813,1.93416 -4.31813,4.31813 0,2.38396 1.88918,4.31812 4.31813,4.31812 z"
         id="path2823" />
    </g>
  </g>
</svg>
