<?xml version="1.0" encoding="UTF-8" standalone="no"?>
<svg
   xmlns:dc="http://purl.org/dc/elements/1.1/"
   xmlns:cc="http://creativecommons.org/ns#"
   xmlns:rdf="http://www.w3.org/1999/02/22-rdf-syntax-ns#"
   xmlns:svg="http://www.w3.org/2000/svg"
   xmlns="http://www.w3.org/2000/svg"
   xmlns:sodipodi="http://sodipodi.sourceforge.net/DTD/sodipodi-0.dtd"
   xmlns:inkscape="http://www.inkscape.org/namespaces/inkscape"
   id="svg620"
   version="1.1"
   viewBox="0 0 79.375 79.375"
   height="300"
   width="300"
   sodipodi:docname="communicate.svg"
   inkscape:version="0.92.5 (2060ec1f9f, 2020-04-08)">
  <sodipodi:namedview
     pagecolor="#ffffff"
     bordercolor="#666666"
     borderopacity="1"
     objecttolerance="10"
     gridtolerance="10"
     guidetolerance="10"
     inkscape:pageopacity="0"
     inkscape:pageshadow="2"
     inkscape:window-width="1440"
     inkscape:window-height="837"
     id="namedview12"
     showgrid="false"
     inkscape:zoom="0.80698789"
     inkscape:cx="281.85926"
     inkscape:cy="281.66482"
     inkscape:window-x="-8"
     inkscape:window-y="-8"
     inkscape:window-maximized="1"
     inkscape:current-layer="flowRoot936-2-9"
     units="px" />
  <defs
     id="defs614" />
  <metadata
     id="metadata617">
    <rdf:RDF>
      <cc:Work
         rdf:about="">
        <dc:format>image/svg+xml</dc:format>
        <dc:type
           rdf:resource="http://purl.org/dc/dcmitype/StillImage" />
        <dc:title></dc:title>
      </cc:Work>
    </rdf:RDF>
  </metadata>
  <g
     transform="translate(-30.658,-78.265444)"
     id="layer1">
    <g
       id="g20">
      <g
         id="g1359"
         transform="matrix(3.1414537,0,0,3.3265631,19.801442,-1734.0885)"
         style="opacity:0.40200004;fill:#717291;fill-opacity:1;stroke-width:0.30934051" />
      <g
         aria-label="– Коммуникабельность"
         transform="matrix(0.20009376,0,0,0.20009376,46.420481,45.866676)"
         style="font-style:normal;font-variant:normal;font-weight:300;font-stretch:normal;font-size:23.03004074px;line-height:1;font-family:Nunito;-inkscape-font-specification:'Nunito Light';font-variant-ligatures:normal;font-variant-position:normal;font-variant-caps:normal;font-variant-numeric:normal;font-variant-alternates:normal;font-feature-settings:normal;text-indent:0;text-align:start;text-decoration:none;text-decoration-line:none;text-decoration-style:solid;text-decoration-color:#000000;letter-spacing:0px;word-spacing:0px;text-transform:none;writing-mode:lr-tb;direction:ltr;text-orientation:mixed;dominant-baseline:auto;baseline-shift:baseline;text-anchor:start;white-space:normal;shape-padding:0;opacity:1;vector-effect:none;fill:#262658;fill-opacity:1;stroke:none;stroke-width:0.76131368;stroke-linecap:butt;stroke-linejoin:miter;stroke-miterlimit:4;stroke-dasharray:none;stroke-dashoffset:0;stroke-opacity:1"
         id="flowRoot936-2-9">
        <path
           id="path58"
           style="fill:#262658;fill-opacity:1;stroke-width:0.76131368"
           d="m 259.70934,325.18168 c -0.26101,0 -0.4606,-0.0614 -0.59878,-0.18424 -0.12283,-0.13818 -0.18424,-0.3301 -0.18424,-0.57575 v -9.83383 c 0,-0.24565 0.0614,-0.42989 0.18424,-0.55272 0.12283,-0.12283 0.29939,-0.18424 0.52969,-0.18424 0.21495,0 0.38383,0.0614 0.50666,0.18424 0.12283,0.12283 0.18424,0.30707 0.18424,0.55272 v 3.54663 h 3.56966 c 1.39715,0 2.45654,0.30707 3.17815,0.9212 0.73696,0.61413 1.10544,1.47392 1.10544,2.57936 0,0.73696 -0.16889,1.37413 -0.50666,1.9115 -0.32242,0.53737 -0.79837,0.94423 -1.42786,1.22059 -0.62949,0.27636 -1.41252,0.41454 -2.34907,0.41454 z m 0.62181,-1.08241 h 3.5236 c 0.9212,0 1.63513,-0.19959 2.14179,-0.59878 0.52202,-0.39919 0.78303,-1.01333 0.78303,-1.84241 0,-0.84443 -0.26101,-1.46624 -0.78303,-1.86543 -0.50666,-0.39919 -1.22059,-0.59878 -2.14179,-0.59878 h -3.5236 z m -8.3286,1.22059 c -0.21495,0 -0.38383,-0.0614 -0.50666,-0.18424 -0.12283,-0.12283 -0.18424,-0.29939 -0.18424,-0.52969 v -9.41929 h -3.63874 c -0.46061,0 -0.69091,-0.19959 -0.69091,-0.59878 0,-0.16889 0.0614,-0.30707 0.18424,-0.41454 0.12283,-0.10747 0.29172,-0.16121 0.50667,-0.16121 h 8.68232 c 0.44525,0 0.66787,0.19192 0.66787,0.57575 0,0.18424 -0.0614,0.3301 -0.18424,0.43757 -0.10747,0.10747 -0.26868,0.16121 -0.48363,0.16121 h -3.63875 v 9.41929 c 0,0.2303 -0.0614,0.40686 -0.18424,0.52969 -0.10747,0.12283 -0.28404,0.18424 -0.52969,0.18424 z m -9.20734,0.0461 c -1.09009,0 -2.02664,-0.23798 -2.80966,-0.71393 -0.78302,-0.49131 -1.38948,-1.17453 -1.81937,-2.04968 -0.41454,-0.89049 -0.62181,-1.91917 -0.62181,-3.08602 0,-0.89049 0.11515,-1.68119 0.34545,-2.3721 0.24565,-0.70625 0.5911,-1.30503 1.03635,-1.79634 0.4606,-0.49131 1.01332,-0.86746 1.65816,-1.12847 0.66019,-0.27636 1.39715,-0.41454 2.21088,-0.41454 0.56808,0 1.15151,0.0998 1.75029,0.29939 0.59878,0.18424 1.14382,0.49898 1.63513,0.94423 0.10747,0.0921 0.17656,0.19959 0.20727,0.32242 0.0307,0.12283 0.0231,0.24565 -0.023,0.36848 -0.0461,0.10747 -0.11516,0.19959 -0.20727,0.27636 -0.0921,0.0614 -0.20727,0.0998 -0.34545,0.11515 -0.12283,0 -0.25333,-0.0614 -0.39151,-0.18424 -0.42989,-0.35313 -0.86746,-0.5911 -1.31271,-0.71393 -0.42989,-0.13818 -0.85211,-0.20727 -1.26665,-0.20727 -0.62949,0 -1.18222,0.0998 -1.65817,0.29939 -0.47595,0.19959 -0.88282,0.49131 -1.22059,0.87514 -0.32242,0.38383 -0.56807,0.85979 -0.73696,1.42786 -0.16889,0.55273 -0.25333,1.18989 -0.25333,1.9115 0,1.44321 0.3301,2.57936 0.99029,3.40844 0.67555,0.81373 1.63513,1.2206 2.87876,1.2206 0.41454,0 0.83676,-0.0614 1.26665,-0.18424 0.44525,-0.13818 0.88282,-0.38384 1.31271,-0.73697 0.13818,-0.12283 0.26868,-0.17656 0.39151,-0.16121 0.13818,0 0.25333,0.0384 0.34545,0.11515 0.0921,0.0614 0.15353,0.15352 0.18424,0.27637 0.0461,0.10747 0.0537,0.22262 0.023,0.34545 -0.0307,0.12283 -0.0998,0.2303 -0.20727,0.32242 -0.47595,0.44525 -1.01332,0.75999 -1.6121,0.94423 -0.59878,0.18424 -1.18221,0.27636 -1.75029,0.27636 z m -12.88962,0 c -1.04403,0 -1.94988,-0.23798 -2.71755,-0.71393 -0.76767,-0.47595 -1.36645,-1.14383 -1.79634,-2.00362 -0.41454,-0.85979 -0.62181,-1.88078 -0.62181,-3.06299 0,-0.87514 0.11515,-1.66584 0.34545,-2.3721 0.24565,-0.70625 0.5911,-1.31271 1.03635,-1.81937 0.4606,-0.52201 1.00565,-0.91352 1.63514,-1.17453 0.64484,-0.27636 1.35109,-0.41454 2.11876,-0.41454 1.05938,0 1.9729,0.23798 2.74057,0.71393 0.76767,0.47595 1.35878,1.1515 1.77332,2.02664 0.42989,0.85979 0.64484,1.87312 0.64484,3.03997 0,0.89049 -0.12283,1.68887 -0.36848,2.39512 -0.2303,0.70625 -0.57575,1.31271 -1.03635,1.81938 -0.44525,0.50666 -0.98262,0.89817 -1.61211,1.17453 -0.62949,0.26101 -1.34342,0.39151 -2.14179,0.39151 z m 0,-1.17453 c 0.76767,0 1.42786,-0.17656 1.98058,-0.52969 0.56807,-0.36849 0.99797,-0.89818 1.28969,-1.58908 0.30707,-0.6909 0.4606,-1.51998 0.4606,-2.48724 0,-1.45857 -0.33778,-2.58705 -1.01333,-3.38542 -0.66019,-0.79837 -1.56604,-1.19756 -2.71754,-1.19756 -0.75231,0 -1.41251,0.18424 -1.98058,0.55272 -0.55273,0.35313 -0.98262,0.87514 -1.28969,1.56604 -0.29171,0.67555 -0.43757,1.49696 -0.43757,2.46422 0,1.47392 0.33777,2.61007 1.01332,3.40844 0.67555,0.79838 1.57373,1.19757 2.69452,1.19757 z m -17.00012,1.12847 c -0.2303,0 -0.40686,-0.0614 -0.52969,-0.18424 -0.12283,-0.12283 -0.18424,-0.29939 -0.18424,-0.52969 V 314.5879 c 0,-0.24565 0.0614,-0.42989 0.18424,-0.55272 0.12283,-0.12283 0.29939,-0.18424 0.52969,-0.18424 0.21495,0 0.38383,0.0614 0.50666,0.18424 0.12283,0.12283 0.18424,0.30707 0.18424,0.55272 v 4.23753 h 6.60962 v -4.23753 c 0,-0.24565 0.0614,-0.42989 0.18424,-0.55272 0.12283,-0.12283 0.29171,-0.18424 0.50666,-0.18424 0.2303,0 0.40686,0.0614 0.52969,0.18424 0.12283,0.12283 0.18424,0.30707 0.18424,0.55272 v 10.01807 c 0,0.2303 -0.0614,0.40686 -0.18424,0.52969 -0.12283,0.12283 -0.29939,0.18424 -0.52969,0.18424 -0.21495,0 -0.38383,-0.0614 -0.50666,-0.18424 -0.12283,-0.12283 -0.18424,-0.29939 -0.18424,-0.52969 v -4.60601 h -6.60962 v 4.60601 c 0,0.2303 -0.0614,0.40686 -0.18424,0.52969 -0.10747,0.12283 -0.27636,0.18424 -0.50666,0.18424 z m -12.12064,-0.13818 c -0.26101,0 -0.4606,-0.0614 -0.59878,-0.18424 -0.12283,-0.13818 -0.18424,-0.3301 -0.18424,-0.57575 v -9.83383 c 0,-0.24565 0.0614,-0.42989 0.18424,-0.55272 0.12283,-0.12283 0.29939,-0.18424 0.52969,-0.18424 0.21495,0 0.38383,0.0614 0.50666,0.18424 0.12283,0.12283 0.18424,0.30707 0.18424,0.55272 v 3.54663 h 3.56966 c 1.39715,0 2.45653,0.30707 3.17814,0.9212 0.73696,0.61413 1.10544,1.47392 1.10544,2.57936 0,0.73696 -0.16889,1.37413 -0.50666,1.9115 -0.32242,0.53737 -0.79837,0.94423 -1.42786,1.22059 -0.62949,0.27636 -1.41251,0.41454 -2.34906,0.41454 z m 0.62181,-1.08241 h 3.5236 c 0.9212,0 1.63513,-0.19959 2.14179,-0.59878 0.52201,-0.39919 0.78302,-1.01333 0.78302,-1.84241 0,-0.84443 -0.26101,-1.46624 -0.78302,-1.86543 -0.50666,-0.39919 -1.22059,-0.59878 -2.14179,-0.59878 h -3.5236 z m -5.99824,1.22059 c -0.21495,0 -0.38383,-0.0614 -0.50666,-0.18424 -0.12283,-0.12283 -0.18424,-0.29939 -0.18424,-0.52969 v -9.44232 h -4.97449 v 1.47392 c 0,1.25898 -0.0537,2.36442 -0.16121,3.31633 -0.10747,0.93655 -0.28404,1.7426 -0.52969,2.41815 -0.2303,0.67555 -0.54505,1.24363 -0.94424,1.70423 -0.38383,0.4606 -0.87514,0.84443 -1.47392,1.1515 -0.15353,0.0768 -0.29939,0.0998 -0.43757,0.0691 -0.13818,-0.0153 -0.25333,-0.0691 -0.34545,-0.16121 -0.0921,-0.0921 -0.15353,-0.19959 -0.18424,-0.32242 -0.0307,-0.12283 -0.0231,-0.25333 0.023,-0.39151 0.0614,-0.13818 0.17655,-0.24565 0.34545,-0.32242 0.4606,-0.26101 0.84443,-0.58343 1.1515,-0.96727 0.30707,-0.39919 0.55272,-0.89049 0.73696,-1.47392 0.18425,-0.59878 0.30708,-1.30503 0.36849,-2.11876 0.0768,-0.82908 0.11515,-1.8117 0.11515,-2.94785 v -1.77331 c 0,-0.26101 0.0691,-0.4606 0.20727,-0.59878 0.13818,-0.13818 0.33777,-0.20727 0.59878,-0.20727 h 6.07993 c 0.26101,0 0.4606,0.0691 0.59878,0.20727 0.15353,0.13818 0.2303,0.33777 0.2303,0.59878 v 9.78777 c 0,0.2303 -0.0614,0.40686 -0.18424,0.52969 -0.12283,0.12283 -0.29939,0.18424 -0.52969,0.18424 z m -15.8713,0.0461 c -1.15151,0 -2.1418,-0.2303 -2.97088,-0.6909 -0.82908,-0.4606 -1.46624,-1.1208 -1.91149,-1.98059 -0.44525,-0.85979 -0.66787,-1.88078 -0.66787,-3.06299 0,-1.16685 0.22262,-2.18018 0.66787,-3.03997 0.44525,-0.87514 1.05938,-1.55836 1.8424,-2.04967 0.79837,-0.49131 1.7119,-0.73696 2.74057,-0.73696 0.75232,0 1.41252,0.1305 1.98059,0.39151 0.58343,0.24565 1.07473,0.60646 1.47392,1.08241 0.41454,0.4606 0.72928,1.02867 0.94423,1.70422 0.21495,0.6602 0.32242,1.41252 0.32242,2.25695 0,0.21495 -0.0614,0.37616 -0.18424,0.48363 -0.10747,0.10747 -0.26101,0.16121 -0.4606,0.16121 h -8.31384 v -1.03635 h 8.08354 l -0.36848,0.29939 c 0,-0.89049 -0.1305,-1.64281 -0.39151,-2.25695 -0.26101,-0.62949 -0.65252,-1.11312 -1.17453,-1.45089 -0.50666,-0.33777 -1.13615,-0.50666 -1.88847,-0.50666 -0.84443,0 -1.55836,0.19959 -2.14179,0.59878 -0.58343,0.38383 -1.021,0.9212 -1.31271,1.6121 -0.29171,0.67555 -0.43757,1.45858 -0.43757,2.34907 v 0.11515 c 0,1.47392 0.3608,2.61007 1.08241,3.40844 0.72161,0.78303 1.73493,1.17454 3.03997,1.17454 0.56807,0 1.11312,-0.0768 1.63513,-0.2303 0.53737,-0.15353 1.05938,-0.41454 1.56604,-0.78303 0.15353,-0.10747 0.29939,-0.16121 0.43757,-0.16121 0.15353,0 0.27636,0.0384 0.36848,0.11515 0.10747,0.0768 0.17656,0.17657 0.20727,0.2994 0.0461,0.10747 0.0384,0.2303 -0.023,0.36848 -0.0461,0.12283 -0.14586,0.23798 -0.29939,0.34545 -0.49131,0.39919 -1.08241,0.70625 -1.77331,0.9212 -0.6909,0.19959 -1.3818,0.29939 -2.0727,0.29939 z m -13.16599,0 c -1.05938,0 -1.98058,-0.23798 -2.76361,-0.71393 -0.76767,-0.47595 -1.36645,-1.18221 -1.79634,-2.11877 -0.41454,-0.93655 -0.62181,-2.08805 -0.62181,-3.4545 v -1.75029 c 0,-1.48927 0.18424,-2.72522 0.55272,-3.70783 0.38383,-0.98261 0.95191,-1.77331 1.70422,-2.3721 0.76767,-0.61413 1.71958,-1.09009 2.85573,-1.42786 l 3.5236,-1.03635 c 0.21495,-0.0614 0.39919,-0.0537 0.55272,0.023 0.15353,0.0614 0.25333,0.18423 0.29939,0.36848 0.0614,0.21495 0.0384,0.39151 -0.0691,0.52969 -0.0921,0.13818 -0.25333,0.23798 -0.48363,0.29939 l -3.73087,1.08241 c -0.84443,0.24565 -1.55836,0.61414 -2.14179,1.10545 -0.56808,0.49131 -0.9903,1.09009 -1.26666,1.79634 -0.27636,0.70625 -0.41454,1.49695 -0.41454,2.37209 v 0.78302 h -0.27636 c 0.19959,-0.6909 0.49898,-1.27433 0.89817,-1.75028 0.41454,-0.49131 0.91353,-0.85979 1.49696,-1.10544 0.59878,-0.26101 1.24362,-0.39151 1.93452,-0.39151 0.98261,0 1.8424,0.23798 2.57936,0.71393 0.73697,0.4606 1.30504,1.12079 1.70423,1.98058 0.39919,0.84444 0.59878,1.85009 0.59878,3.01694 0,1.16685 -0.21495,2.18017 -0.64484,3.03996 -0.41454,0.85979 -1.00565,1.52767 -1.77332,2.00362 -0.75231,0.47595 -1.65816,0.71393 -2.71754,0.71393 z m -0.0461,-1.17453 c 0.78302,0 1.45089,-0.17656 2.00361,-0.52969 0.56807,-0.35313 0.99797,-0.86747 1.28969,-1.54302 0.30707,-0.67555 0.4606,-1.50463 0.4606,-2.48724 0,-1.44322 -0.33778,-2.55634 -1.01333,-3.33936 -0.66019,-0.79837 -1.56604,-1.19756 -2.71754,-1.19756 -0.76767,0 -1.42786,0.17656 -1.98058,0.52969 -0.55273,0.33777 -0.98262,0.83676 -1.28969,1.49695 -0.30707,0.64485 -0.4606,1.41252 -0.4606,2.30301 0,1.56604 0.3301,2.75592 0.99029,3.56965 0.6602,0.79838 1.56605,1.19757 2.71755,1.19757 z m -13.15695,1.17453 c -0.75231,0 -1.42786,-0.14586 -2.02664,-0.43757 -0.58343,-0.29171 -1.05171,-0.6909 -1.40484,-1.19756 -0.33777,-0.50667 -0.50666,-1.07474 -0.50666,-1.70423 0,-0.82908 0.20727,-1.4816 0.62181,-1.95755 0.41454,-0.47595 1.11312,-0.80605 2.09574,-0.99029 0.98261,-0.19959 2.33371,-0.29939 4.05328,-0.29939 h 0.9903 v 1.03635 h -0.96727 c -1.3818,0 -2.46421,0.0614 -3.24723,0.18424 -0.76767,0.10747 -1.30503,0.31474 -1.6121,0.62181 -0.30707,0.30707 -0.4606,0.73696 -0.4606,1.28968 0,0.6909 0.23798,1.2513 0.71393,1.6812 0.47595,0.42989 1.12079,0.64484 1.93452,0.64484 0.66019,0 1.23594,-0.15353 1.72725,-0.4606 0.50666,-0.32242 0.90585,-0.75999 1.19757,-1.31272 0.29171,-0.55272 0.43757,-1.18221 0.43757,-1.88846 v -2.62542 c 0,-1.02868 -0.20727,-1.77332 -0.62182,-2.23392 -0.41454,-0.47595 -1.07473,-0.71393 -1.98058,-0.71393 -0.58343,0 -1.1515,0.0768 -1.70422,0.2303 -0.53737,0.15353 -1.11312,0.39919 -1.72725,0.73696 -0.16889,0.0921 -0.32243,0.12282 -0.46061,0.0921 -0.12283,-0.0307 -0.22262,-0.0922 -0.29939,-0.18424 -0.0614,-0.0921 -0.10746,-0.19959 -0.13818,-0.32242 -0.0153,-0.13818 0.008,-0.26868 0.0691,-0.39151 0.0614,-0.12283 0.16887,-0.22262 0.32242,-0.29939 0.64485,-0.35313 1.29737,-0.61413 1.95756,-0.78302 0.67555,-0.18424 1.32806,-0.27636 1.95755,-0.27636 0.90585,0 1.65049,0.15353 2.23392,0.4606 0.59878,0.30707 1.03635,0.76767 1.31271,1.3818 0.29171,0.61413 0.43757,1.40483 0.43757,2.3721 v 6.58659 c 0,0.2303 -0.0537,0.40686 -0.16121,0.52969 -0.10747,0.12283 -0.26868,0.18424 -0.48363,0.18424 -0.21495,0 -0.38383,-0.0614 -0.50666,-0.18424 -0.12283,-0.12283 -0.18424,-0.29939 -0.18424,-0.52969 v -2.11877 h 0.2303 c -0.13818,0.59879 -0.38383,1.11313 -0.73696,1.54302 -0.35313,0.42989 -0.79071,0.75999 -1.31272,0.99029 -0.52201,0.2303 -1.10544,0.34545 -1.75028,0.34545 z m -14.52548,-0.0461 c -0.2303,0 -0.40686,-0.0614 -0.52969,-0.18424 -0.12283,-0.12283 -0.18424,-0.29939 -0.18424,-0.52969 v -9.94898 c 0,-0.24565 0.0614,-0.42989 0.18424,-0.55272 0.12283,-0.12283 0.29939,-0.18424 0.52969,-0.18424 0.21495,0 0.38383,0.0614 0.50666,0.18424 0.12283,0.12283 0.18424,0.30707 0.18424,0.55272 v 4.16844 h 2.30301 l 3.66177,-4.58298 c 0.10747,-0.15353 0.2303,-0.24565 0.36848,-0.27636 0.15353,-0.0461 0.29171,-0.0461 0.41454,0 0.12283,0.0307 0.22262,0.0998 0.29939,0.20727 0.0768,0.10747 0.10747,0.23798 0.0921,0.39151 0,0.13818 -0.0537,0.28404 -0.16121,0.43757 l -3.47753,4.35268 -0.48363,-0.43757 c 0.44525,0.0461 0.8214,0.14586 1.12847,0.29939 0.30707,0.15353 0.60646,0.40686 0.89817,0.75999 0.30707,0.35313 0.65252,0.84443 1.03635,1.47392 l 1.77332,2.90179 c 0.0768,0.15353 0.10747,0.29939 0.0921,0.43757 -0.0153,0.12283 -0.0768,0.23798 -0.18424,0.34545 -0.0921,0.0921 -0.20727,0.14586 -0.34546,0.16121 -0.12283,0.0307 -0.25333,0.0154 -0.39151,-0.0461 -0.12283,-0.0461 -0.23798,-0.14586 -0.34545,-0.29939 l -1.93452,-3.20118 c -0.29171,-0.4606 -0.56807,-0.81373 -0.82908,-1.05938 -0.24565,-0.26101 -0.52969,-0.44525 -0.85211,-0.55272 -0.30707,-0.10747 -0.69858,-0.16121 -1.17454,-0.16121 h -1.88846 v 4.62904 c 0,0.2303 -0.0614,0.40686 -0.18424,0.52969 -0.12283,0.12283 -0.29171,0.18424 -0.50666,0.18424 z m -13.29337,0 c -0.12283,0 -0.23798,-0.023 -0.34545,-0.0691 -0.0921,-0.0461 -0.16889,-0.12283 -0.2303,-0.2303 -0.0461,-0.12283 -0.0691,-0.27636 -0.0691,-0.4606 v -9.99504 c 0,-0.2303 0.0537,-0.40686 0.16121,-0.52969 0.12283,-0.12283 0.29171,-0.18424 0.50666,-0.18424 0.19959,0 0.35313,0.0614 0.4606,0.18424 0.10747,0.12283 0.16121,0.29939 0.16121,0.52969 v 9.37323 h -0.55272 l 7.16234,-9.62656 c 0.10747,-0.13818 0.22262,-0.24565 0.34545,-0.32242 0.12283,-0.0921 0.28404,-0.13818 0.48363,-0.13818 0.13818,0 0.25333,0.0307 0.34545,0.0921 0.0921,0.0461 0.16121,0.12283 0.20727,0.2303 0.0614,0.10747 0.0921,0.25333 0.0921,0.43757 v 10.01807 c 0,0.21495 -0.0614,0.38383 -0.18424,0.50666 -0.10747,0.12283 -0.26101,0.18424 -0.4606,0.18424 -0.21495,0 -0.37616,-0.0614 -0.48363,-0.18424 -0.10747,-0.12283 -0.16121,-0.29171 -0.16121,-0.50666 v -9.37323 h 0.55272 l -7.18537,9.62656 c -0.0921,0.12283 -0.19959,0.22262 -0.32242,0.29939 -0.12283,0.0921 -0.28404,0.13818 -0.48363,0.13818 z m -13.20018,0 c -0.23029,0 -0.40685,-0.0614 -0.52968,-0.18424 -0.12283,-0.12283 -0.18424,-0.29939 -0.18424,-0.52969 V 314.5879 c 0,-0.24565 0.0614,-0.42989 0.18424,-0.55272 0.12283,-0.12283 0.29939,-0.18424 0.52968,-0.18424 0.21495,0 0.38384,0.0614 0.50667,0.18424 0.12283,0.12283 0.18424,0.30707 0.18424,0.55272 v 4.23753 h 6.60962 v -4.23753 c 0,-0.24565 0.0614,-0.42989 0.18424,-0.55272 0.12283,-0.12283 0.29171,-0.18424 0.50666,-0.18424 0.2303,0 0.40686,0.0614 0.52969,0.18424 0.12283,0.12283 0.18424,0.30707 0.18424,0.55272 v 10.01807 c 0,0.2303 -0.0614,0.40686 -0.18424,0.52969 -0.12283,0.12283 -0.29939,0.18424 -0.52969,0.18424 -0.21495,0 -0.38383,-0.0614 -0.50666,-0.18424 -0.12283,-0.12283 -0.18424,-0.29939 -0.18424,-0.52969 v -4.60601 h -6.60962 v 4.60601 c 0,0.2303 -0.0614,0.40686 -0.18424,0.52969 -0.10747,0.12283 -0.27636,0.18424 -0.50667,0.18424 z m -10.28471,4.14541 c -0.18424,0 -0.3301,-0.0537 -0.43757,-0.16121 -0.10747,-0.0921 -0.16889,-0.22263 -0.18424,-0.39152 0,-0.15353 0.0307,-0.31474 0.0921,-0.48363 l 1.58908,-3.61571 v 0.64484 l -4.513891,-10.5478 c -0.07677,-0.18424 -0.107473,-0.35313 -0.09212,-0.50666 0.03071,-0.16889 0.0998,-0.29939 0.20727,-0.39151 0.122827,-0.10747 0.291714,-0.16121 0.506661,-0.16121 0.199594,0 0.345451,0.0461 0.437571,0.13818 0.107473,0.0921 0.199593,0.23798 0.27636,0.43757 l 4.099349,9.92595 h -0.57575 l 4.09934,-9.92595 c 0.0921,-0.21495 0.19192,-0.3608 0.29939,-0.43757 0.10748,-0.0921 0.26102,-0.13818 0.46061,-0.13818 0.19959,0 0.34545,0.0537 0.43757,0.16121 0.10747,0.0921 0.16889,0.21495 0.18424,0.36848 0.0153,0.15353 -0.0154,0.32242 -0.0921,0.50666 l -6.01084,14.02529 c -0.0921,0.21495 -0.19959,0.36081 -0.32242,0.43758 -0.10747,0.0768 -0.26101,0.11515 -0.46061,0.11515 z M 85.248515,325.3199 c -0.199594,0 -0.353128,-0.0614 -0.460601,-0.18424 -0.107473,-0.12283 -0.16121,-0.29171 -0.16121,-0.50666 v -10.0411 c 0,-0.15353 0.02303,-0.28404 0.06909,-0.39151 0.04606,-0.10747 0.11515,-0.19192 0.20727,-0.25333 0.09212,-0.0614 0.20727,-0.0921 0.345451,-0.0921 0.122827,0 0.2303,0.023 0.32242,0.0691 0.09212,0.0461 0.168888,0.10748 0.230301,0.18424 0.07677,0.0614 0.145857,0.14584 0.20727,0.25333 l 4.145407,7.53082 4.145408,-7.53082 c 0.06141,-0.10747 0.122827,-0.19959 0.18424,-0.27636 0.06141,-0.0768 0.13818,-0.1305 0.2303,-0.16121 0.09212,-0.0461 0.199594,-0.0691 0.322421,-0.0691 0.214947,0 0.368481,0.0614 0.460601,0.18424 0.107473,0.12283 0.16121,0.30707 0.16121,0.55272 v 10.0411 c 0,0.21495 -0.05374,0.38383 -0.16121,0.50666 -0.107473,0.12283 -0.261007,0.18424 -0.460601,0.18424 -0.199594,0 -0.353128,-0.0614 -0.460601,-0.18424 -0.107473,-0.12283 -0.16121,-0.29171 -0.16121,-0.50666 v -9.00475 h 0.483631 l -4.214498,7.50779 c -0.06141,0.10748 -0.13818,0.1996 -0.2303,0.27637 -0.07677,0.0614 -0.176564,0.0921 -0.299391,0.0921 -0.13818,0 -0.245653,-0.0307 -0.32242,-0.0921 -0.07677,-0.0768 -0.153534,-0.16889 -0.230301,-0.27637 l -4.214497,-7.50779 h 0.506661 v 9.00475 c 0,0.21495 -0.06141,0.38383 -0.18424,0.50666 -0.107474,0.12283 -0.261008,0.18424 -0.460601,0.18424 z m -14.888562,0 c -0.199593,0 -0.353127,-0.0614 -0.4606,-0.18424 -0.107474,-0.12283 -0.161211,-0.29171 -0.161211,-0.50666 v -10.0411 c 0,-0.15353 0.02303,-0.28404 0.06909,-0.39151 0.04606,-0.10747 0.11515,-0.19192 0.207271,-0.25333 0.09212,-0.0614 0.20727,-0.0921 0.34545,-0.0921 0.122827,0 0.230301,0.023 0.322421,0.0691 0.09212,0.0461 0.168887,0.10748 0.2303,0.18424 0.07677,0.0614 0.145858,0.14584 0.207271,0.25333 l 4.145407,7.53082 4.145407,-7.53082 c 0.06141,-0.10747 0.122827,-0.19959 0.184241,-0.27636 0.06141,-0.0768 0.13818,-0.1305 0.2303,-0.16121 0.09212,-0.0461 0.199594,-0.0691 0.322421,-0.0691 0.214947,0 0.36848,0.0614 0.460601,0.18424 0.107473,0.12283 0.16121,0.30707 0.16121,0.55272 v 10.0411 c 0,0.21495 -0.05374,0.38383 -0.16121,0.50666 -0.107474,0.12283 -0.261008,0.18424 -0.460601,0.18424 -0.199594,0 -0.353128,-0.0614 -0.460601,-0.18424 -0.107473,-0.12283 -0.16121,-0.29171 -0.16121,-0.50666 v -9.00475 h 0.483631 l -4.214498,7.50779 c -0.06141,0.10748 -0.13818,0.1996 -0.2303,0.27637 -0.07677,0.0614 -0.176564,0.0921 -0.299391,0.0921 -0.13818,0 -0.245653,-0.0307 -0.32242,-0.0921 -0.07677,-0.0768 -0.153534,-0.16889 -0.230301,-0.27637 l -4.214497,-7.50779 h 0.506661 v 9.00475 c 0,0.21495 -0.06141,0.38383 -0.184241,0.50666 -0.107473,0.12283 -0.261007,0.18424 -0.460601,0.18424 z m -8.95149,0.0461 c -1.044029,0 -1.949877,-0.23798 -2.717545,-0.71393 -0.767668,-0.47595 -1.366449,-1.14383 -1.796343,-2.00362 -0.414541,-0.85979 -0.621811,-1.88078 -0.621811,-3.06299 0,-0.87514 0.11515,-1.66584 0.345451,-2.3721 0.245653,-0.70625 0.591104,-1.31271 1.036352,-1.81937 0.460601,-0.52201 1.005645,-0.91352 1.635132,-1.17453 0.644841,-0.27636 1.351096,-0.41454 2.118764,-0.41454 1.059382,0 1.972907,0.23798 2.740575,0.71393 0.767668,0.47595 1.358772,1.1515 1.773313,2.02664 0.429894,0.85979 0.644841,1.87312 0.644841,3.03997 0,0.89049 -0.122827,1.68887 -0.36848,2.39512 -0.230301,0.70625 -0.575751,1.31271 -1.036352,1.81938 -0.445247,0.50666 -0.982615,0.89817 -1.612103,1.17453 -0.629488,0.26101 -1.343419,0.39151 -2.141794,0.39151 z m 0,-1.17453 c 0.767668,0 1.427863,-0.17656 1.980584,-0.52969 0.568074,-0.36849 0.997968,-0.89818 1.289682,-1.58908 0.307067,-0.6909 0.460601,-1.51998 0.460601,-2.48724 0,-1.45857 -0.337774,-2.58705 -1.013322,-3.38542 -0.660195,-0.79837 -1.566043,-1.19756 -2.717545,-1.19756 -0.752315,0 -1.412509,0.18424 -1.980583,0.55272 -0.552721,0.35313 -0.982616,0.87514 -1.289683,1.56604 -0.291713,0.67555 -0.43757,1.49696 -0.43757,2.46422 0,1.47392 0.337774,2.61007 1.013321,3.40844 0.675548,0.79838 1.57372,1.19757 2.694515,1.19757 z m -17.87347,1.12847 c -0.214947,0 -0.383834,-0.0614 -0.506661,-0.18424 -0.122827,-0.13818 -0.18424,-0.32242 -0.18424,-0.55272 v -15.06165 c 0,-0.2303 0.06141,-0.40686 0.18424,-0.52969 0.122827,-0.12283 0.291714,-0.18424 0.506661,-0.18424 0.230301,0 0.406864,0.0614 0.529691,0.18424 0.122827,0.12283 0.18424,0.29939 0.18424,0.52969 v 6.81689 h 3.408446 l -0.529691,0.34545 5.043579,-7.50779 c 0.107474,-0.15353 0.230301,-0.25333 0.368481,-0.29939 0.13818,-0.0614 0.27636,-0.0768 0.414541,-0.0461 0.13818,0.0307 0.25333,0.0998 0.34545,0.20727 0.09212,0.0921 0.145857,0.20727 0.161211,0.34545 0.03071,0.13818 -0.0077,0.29171 -0.115151,0.4606 l -4.790248,7.04719 -0.483631,-0.50666 c 0.890495,0.0921 1.658163,0.41454 2.303004,0.96726 0.660195,0.53737 1.228269,1.28969 1.704223,2.25695 l 2.349064,4.74419 c 0.09212,0.16889 0.11515,0.3301 0.06909,0.48363 -0.03071,0.13818 -0.107473,0.24565 -0.2303,0.32242 -0.107473,0.0768 -0.237977,0.12283 -0.391511,0.13818 -0.13818,0.0153 -0.27636,-0.0154 -0.41454,-0.0921 -0.138181,-0.0614 -0.245654,-0.17655 -0.322421,-0.34545 l -2.164824,-4.46783 c -0.491307,-1.01332 -1.044028,-1.73493 -1.658163,-2.16482 -0.598781,-0.4299 -1.335742,-0.64485 -2.210884,-0.64485 h -2.855725 v 7.00114 c 0,0.2303 -0.06141,0.41454 -0.18424,0.55272 -0.107473,0.12283 -0.284037,0.18424 -0.529691,0.18424 z M 23.822358,319.5394 c -0.153533,0 -0.284037,-0.0461 -0.391511,-0.13818 -0.107473,-0.0921 -0.16121,-0.20727 -0.16121,-0.34545 0,-0.15353 0.05374,-0.26868 0.16121,-0.34545 0.107474,-0.0921 0.237978,-0.13818 0.391511,-0.13818 h 10.685939 c 0.153533,0 0.284037,0.0461 0.391511,0.13818 0.107473,0.0768 0.16121,0.19192 0.16121,0.34545 0,0.13818 -0.05374,0.25333 -0.16121,0.34545 -0.107474,0.0921 -0.237978,0.13818 -0.391511,0.13818 z M 139.94741,241.44874 c -91.675122,-7.9e-4 -165.992655,35.14084 -165.990082,78.48972 0.05631,5.19769 0.662379,10.96999 3.427339,15.47024 11.921281,19.40306 32.1447559,33.78582 52.823101,43.32531 33.746119,15.56801 69.309264,19.66515 109.739642,19.68968 91.66984,-2.6e-4 165.98339,-35.13885 165.98606,-78.48523 0.003,-43.34813 -74.31251,-78.48946 -165.98606,-78.48972 z"
           inkscape:connector-curvature="0"
           sodipodi:nodetypes="scsssssscscsccsscscscsccssscsssssscscscssccscccsccccccccssccscscccccscsssccscccsccscccssccscsccsssssssssssccssssssssssccscsscsssssscscscssscscscscccssccsccccccccccccssssscsssccsscsccscccscsccccccsccsscsccscccccsscccssccccccccccssccccsccsccccsccscsccscscccsscsccscsscsccsscscccccsccsccsssssscccscccsssssssccccccccccccccccccccccscsscccccsscsssccccsccsscsssccccccssssssssccssssssssssccscscccccccccsccccccsccccccccsssscscccccscscssssssccccsccccscccccssscssccccccscsscsssccccsccccscccsscscccsscscccssccscsccscsccsssssscccccccccccccccccccccscscccscscsscscssccaaccc" />
        <ellipse
           style="opacity:1;fill:#262658;fill-opacity:1;stroke:none;stroke-width:1.32229686;stroke-linecap:round;stroke-miterlimit:4;stroke-dasharray:none;stroke-opacity:1"
           id="path819"
           cx="142.89803"
           cy="435.06311"
           rx="39.683273"
           ry="33.890095" />
        <ellipse
           style="opacity:1;fill:#262658;fill-opacity:1;stroke:none;stroke-width:1.32229686;stroke-linecap:round;stroke-miterlimit:4;stroke-dasharray:none;stroke-opacity:1"
           id="path821"
           cx="-49.990715"
           cy="348.50281"
           rx="22.883059"
           ry="18.735502" />
        <ellipse
           style="opacity:1;fill:#262658;fill-opacity:1;stroke:none;stroke-width:1.32229686;stroke-linecap:round;stroke-miterlimit:4;stroke-dasharray:none;stroke-opacity:1"
           id="path823"
           cx="226.75856"
           cy="418.86783"
           rx="33.31078"
           ry="27.807259" />
        <ellipse
           style="opacity:1;fill:#262658;fill-opacity:1;stroke:none;stroke-width:1.32229686;stroke-linecap:round;stroke-miterlimit:4;stroke-dasharray:none;stroke-opacity:1"
           id="path825"
           cx="280.32382"
           cy="389.28268"
           rx="19.909792"
           ry="16.510559" />
        <ellipse
           style="font-style:normal;font-variant:normal;font-weight:300;font-stretch:normal;font-size:23.03004074px;line-height:1;font-family:Nunito;-inkscape-font-specification:'Nunito Light';font-variant-ligatures:normal;font-variant-position:normal;font-variant-caps:normal;font-variant-numeric:normal;font-variant-alternates:normal;font-feature-settings:normal;text-indent:0;text-align:start;text-decoration:none;text-decoration-line:none;text-decoration-style:solid;text-decoration-color:#000000;letter-spacing:0px;word-spacing:0px;text-transform:none;writing-mode:lr-tb;direction:ltr;text-orientation:mixed;dominant-baseline:auto;baseline-shift:baseline;text-anchor:start;white-space:normal;shape-padding:0;opacity:1;vector-effect:none;fill:#262658;fill-opacity:1;stroke:none;stroke-width:1.32229698;stroke-linecap:round;stroke-linejoin:miter;stroke-miterlimit:4;stroke-dasharray:none;stroke-dashoffset:0;stroke-opacity:1"
           id="path823-5"
           cx="38.310562"
           cy="422.67697"
           rx="39.972935"
           ry="33.36871" />
      </g>
    </g>
  </g>
</svg>
