<?xml version="1.0" encoding="UTF-8" standalone="no"?>
<svg
   xmlns:dc="http://purl.org/dc/elements/1.1/"
   xmlns:cc="http://creativecommons.org/ns#"
   xmlns:rdf="http://www.w3.org/1999/02/22-rdf-syntax-ns#"
   xmlns:svg="http://www.w3.org/2000/svg"
   xmlns="http://www.w3.org/2000/svg"
   xmlns:sodipodi="http://sodipodi.sourceforge.net/DTD/sodipodi-0.dtd"
   xmlns:inkscape="http://www.inkscape.org/namespaces/inkscape"
   id="svg679"
   version="1.1"
   viewBox="0 0 79.375 79.374999"
   height="300"
   width="300"
   sodipodi:docname="heart.svg"
   inkscape:version="0.92.5 (2060ec1f9f, 2020-04-08)">
  <sodipodi:namedview
     pagecolor="#ffffff"
     bordercolor="#666666"
     borderopacity="1"
     objecttolerance="10"
     gridtolerance="10"
     guidetolerance="10"
     inkscape:pageopacity="0"
     inkscape:pageshadow="2"
     inkscape:window-width="1440"
     inkscape:window-height="837"
     id="namedview11"
     showgrid="false"
     inkscape:zoom="1.1920961"
     inkscape:cx="251.90269"
     inkscape:cy="127.90152"
     inkscape:window-x="-8"
     inkscape:window-y="-8"
     inkscape:window-maximized="1"
     inkscape:current-layer="g939"
     units="px" />
  <defs
     id="defs673" />
  <metadata
     id="metadata676">
    <rdf:RDF>
      <cc:Work
         rdf:about="">
        <dc:format>image/svg+xml</dc:format>
        <dc:type
           rdf:resource="http://purl.org/dc/dcmitype/StillImage" />
        <dc:title></dc:title>
      </cc:Work>
    </rdf:RDF>
  </metadata>
  <g
     transform="translate(-85.905019,-78.906334)"
     id="layer1">
    <g
       id="g939">
      <path
         id="path1635"
         d="m 139.65813,94.179099 c 7.80745,8e-5 14.13664,6.329391 14.13674,14.136761 -0.005,2.84361 -0.86792,5.61962 -2.47542,7.96531 l -1.32604,1.66328 c -0.13688,0.14706 -0.27683,0.29075 -0.41984,0.43152 l -5.31332,5.45781 -18.66775,19.17479 -18.66772,-19.17479 -5.31332,-5.45781 c -0.14301,-0.14071 -0.28296,-0.28477 -0.41984,-0.43152 l -1.326038,-1.66328 c -1.6075,-2.34569 -2.470537,-5.1217 -2.475419,-7.96531 9.3e-5,-7.80737 6.329287,-14.136681 14.136727,-14.136761 7.31649,8e-4 13.39882,5.584 14.0656,12.842811 0.66679,-7.258811 6.74914,-12.841691 14.06562,-12.842811 z"
         style="opacity:1;fill:#262658;fill-opacity:1;stroke:none;stroke-width:0.94218135;stroke-linecap:round;stroke-miterlimit:4;stroke-dasharray:none;stroke-opacity:1"
         inkscape:connector-curvature="0" />
      <g
         aria-label="– Отзывчивость "
         transform="matrix(0.20009376,0,0,0.20009376,106.57087,39.237767)"
         style="font-style:normal;font-variant:normal;font-weight:300;font-stretch:normal;font-size:23.03004074px;line-height:1;font-family:Nunito;-inkscape-font-specification:'Nunito Light';font-variant-ligatures:normal;font-variant-position:normal;font-variant-caps:normal;font-variant-numeric:normal;font-variant-alternates:normal;font-feature-settings:normal;text-indent:0;text-align:start;text-decoration:none;text-decoration-line:none;text-decoration-style:solid;text-decoration-color:#000000;letter-spacing:0px;word-spacing:0px;text-transform:none;writing-mode:lr-tb;direction:ltr;text-orientation:mixed;dominant-baseline:auto;baseline-shift:baseline;text-anchor:start;white-space:normal;shape-padding:0;opacity:1;vector-effect:none;fill:#fcfefb;fill-opacity:1;stroke:none;stroke-width:0.76131368;stroke-linecap:butt;stroke-linejoin:miter;stroke-miterlimit:4;stroke-dasharray:none;stroke-dashoffset:0;stroke-opacity:1"
         id="flowRoot936-2-9-4-2">
        <path
           d="m 11.842275,399.07014 q -0.2303,0 -0.391511,-0.13818 -0.16121,-0.13818 -0.16121,-0.34545 0,-0.2303 0.16121,-0.34545 0.161211,-0.13818 0.391511,-0.13818 h 10.685939 q 0.2303,0 0.391511,0.13818 0.16121,0.11515 0.16121,0.34545 0,0.20727 -0.16121,0.34545 -0.161211,0.13818 -0.391511,0.13818 z"
           style="fill:#fcfefb;fill-opacity:1;stroke-width:0.76131368"
           id="path941"
           inkscape:connector-curvature="0" />
        <path
           d="m 37.47363,404.89674 q -2.210883,0 -3.846016,-1.01332 -1.635133,-1.01332 -2.533305,-2.87876 -0.875141,-1.86543 -0.875141,-4.42177 0,-1.93452 0.48363,-3.4545 0.506661,-1.54301 1.450893,-2.6024 0.944232,-1.08241 2.279974,-1.65816 1.358772,-0.57575 3.039965,-0.57575 2.256944,0 3.892077,1.01332 1.635133,0.99029 2.510275,2.85573 0.875141,1.8424 0.875141,4.39873 0,1.93453 -0.506661,3.47754 -0.50666,1.54301 -1.450892,2.62542 -0.944232,1.08242 -2.303004,1.65817 -1.335743,0.57575 -3.016936,0.57575 z m 0,-1.28968 q 1.842404,0 3.132086,-0.82909 1.289682,-0.82908 1.957553,-2.39512 0.690902,-1.56604 0.690902,-3.79996 0,-3.33935 -1.519983,-5.15873 -1.496953,-1.8424 -4.260558,-1.8424 -1.819373,0 -3.109055,0.82908 -1.289682,0.82908 -1.980584,2.39513 -0.667871,1.56604 -0.667871,3.77692 0,3.31633 1.519983,5.18176 1.519983,1.84241 4.237527,1.84241 z"
           style="fill:#fcfefb;fill-opacity:1;stroke-width:0.76131368"
           id="path943"
           inkscape:connector-curvature="0" />
        <path
           d="m 51.194138,404.85068 q -0.32242,0 -0.506661,-0.18424 -0.18424,-0.18424 -0.18424,-0.52969 v -9.41929 h -3.638746 q -0.690902,0 -0.690902,-0.59878 0,-0.25333 0.184241,-0.41454 0.18424,-0.16121 0.506661,-0.16121 h 8.682325 q 0.667871,0 0.667871,0.57575 0,0.27636 -0.18424,0.43757 -0.16121,0.16121 -0.483631,0.16121 H 51.90807 v 9.41929 q 0,0.34545 -0.184241,0.52969 -0.16121,0.18424 -0.529691,0.18424 z"
           style="fill:#fcfefb;fill-opacity:1;stroke-width:0.76131368"
           id="path945"
           inkscape:connector-curvature="0" />
        <path
           d="m 61.61847,404.89674 q -1.197562,0 -2.349064,-0.29939 -1.128472,-0.29939 -1.888464,-0.87514 -0.2303,-0.16121 -0.32242,-0.34545 -0.06909,-0.20727 -0.02303,-0.39151 0.04606,-0.18425 0.16121,-0.2994 0.13818,-0.13818 0.345451,-0.13818 0.2303,-0.023 0.4606,0.16121 0.736962,0.5297 1.681193,0.78303 0.944232,0.25333 1.911494,0.25333 1.750283,0 2.510274,-0.55272 0.759991,-0.55273 0.759991,-1.58908 0,-0.96726 -0.667871,-1.47392 -0.644841,-0.52969 -1.865433,-0.52969 h -1.980583 q -0.299391,0 -0.483631,-0.13818 -0.161211,-0.16121 -0.161211,-0.41454 0,-0.25333 0.161211,-0.39151 0.18424,-0.16121 0.483631,-0.16121 h 1.773313 q 1.059382,0 1.704223,-0.50666 0.667871,-0.52969 0.667871,-1.42787 0,-0.94423 -0.667871,-1.49695 -0.667872,-0.55272 -2.141794,-0.55272 -0.967262,0 -1.842403,0.2303 -0.852112,0.2303 -1.612103,0.71393 -0.345451,0.18424 -0.598781,0.13818 -0.230301,-0.0461 -0.345451,-0.25333 -0.11515,-0.20727 -0.04606,-0.4606 0.06909,-0.25333 0.345451,-0.41454 0.875141,-0.55272 1.934523,-0.82908 1.059382,-0.29939 2.256944,-0.29939 2.072704,0 3.086025,0.85211 1.013322,0.82908 1.013322,2.303 0,1.08242 -0.759991,1.81938 -0.736961,0.71393 -1.957554,0.85211 v -0.29939 q 1.358773,0.023 2.210884,0.80605 0.875142,0.75999 0.875142,1.98058 0,1.47393 -1.151502,2.3721 -1.151502,0.87514 -3.477536,0.87514 z"
           style="fill:#fcfefb;fill-opacity:1;stroke-width:0.76131368"
           id="path947"
           inkscape:connector-curvature="0" />
        <path
           d="m 70.101082,404.7125 q -0.391511,0 -0.598781,-0.18424 -0.18424,-0.20727 -0.18424,-0.57575 v -9.83383 q 0,-0.36848 0.18424,-0.55272 0.18424,-0.18424 0.529691,-0.18424 0.322421,0 0.506661,0.18424 0.18424,0.18424 0.18424,0.55272 v 3.54663 h 3.569657 q 2.095733,0 3.178145,0.9212 1.105442,0.9212 1.105442,2.57936 0,1.10544 -0.506661,1.9115 -0.483631,0.80605 -1.427862,1.22059 -0.944232,0.41454 -2.349064,0.41454 z m 0.621811,-1.08241 h 3.523596 q 1.381803,0 2.141794,-0.59878 0.783022,-0.59879 0.783022,-1.84241 0,-1.26665 -0.783022,-1.86543 -0.759991,-0.59878 -2.141794,-0.59878 h -3.523596 z m 10.340488,1.22059 q -0.32242,0 -0.50666,-0.18424 -0.184241,-0.18424 -0.184241,-0.52969 v -10.01807 q 0,-0.36848 0.184241,-0.55272 0.18424,-0.18424 0.50666,-0.18424 0.345451,0 0.529691,0.18424 0.184241,0.18424 0.184241,0.55272 v 10.01807 q 0,0.71393 -0.713932,0.71393 z"
           style="fill:#fcfefb;fill-opacity:1;stroke-width:0.76131368"
           id="path949"
           inkscape:connector-curvature="0" />
        <path
           d="m 86.429024,404.7125 q -0.391511,0 -0.598781,-0.18424 -0.18424,-0.20727 -0.18424,-0.57575 v -9.64959 q 0,-0.36848 0.18424,-0.55272 0.20727,-0.20727 0.598781,-0.20727 h 4.398738 q 1.266652,0 2.095733,0.34545 0.829082,0.32242 1.243623,0.96726 0.41454,0.64484 0.41454,1.63513 0,1.08242 -0.759991,1.81938 -0.736961,0.71393 -1.957553,0.85211 v -0.29939 q 1.381802,0.023 2.233914,0.80605 0.852111,0.75999 0.852111,1.98058 0,1.40484 -1.036352,2.23392 -1.036352,0.82908 -2.901785,0.82908 z m 0.575751,-1.03635 h 4.007227 q 1.243622,0 1.888463,-0.52969 0.667872,-0.55273 0.667872,-1.54302 0,-1.01332 -0.667872,-1.51998 -0.644841,-0.52969 -1.888463,-0.52969 h -4.007227 z m 0,-5.15873 h 3.822987 q 1.128472,0 1.750283,-0.52969 0.644841,-0.52969 0.644841,-1.4509 0,-0.94423 -0.644841,-1.45089 -0.621811,-0.50666 -1.750283,-0.50666 h -3.822987 z"
           style="fill:#fcfefb;fill-opacity:1;stroke-width:0.76131368"
           id="path951"
           inkscape:connector-curvature="0" />
        <path
           d="m 105.91495,404.85068 q -0.32242,0 -0.50666,-0.18424 -0.18424,-0.20727 -0.18424,-0.55272 v -4.14541 q -0.66787,0.43757 -1.45089,0.66787 -0.75999,0.20727 -1.6812,0.20727 -2.34906,0 -3.454502,-1.10544 -1.105442,-1.10544 -1.105442,-3.40845 v -2.21088 q 0,-0.36848 0.18424,-0.55272 0.184241,-0.18424 0.529691,-0.18424 0.322421,0 0.506661,0.18424 0.18424,0.18424 0.18424,0.55272 v 2.14179 q 0,1.75029 0.783022,2.55634 0.78302,0.80605 2.48724,0.80605 0.92121,0 1.61211,-0.20727 0.71393,-0.20727 1.40483,-0.6909 v -4.60601 q 0,-0.73696 0.6909,-0.73696 0.34545,0 0.52969,0.20727 0.18424,0.18424 0.18424,0.52969 v 9.99504 q 0,0.34545 -0.18424,0.55272 -0.16121,0.18424 -0.52969,0.18424 z"
           style="fill:#fcfefb;fill-opacity:1;stroke-width:0.76131368"
           id="path953"
           inkscape:connector-curvature="0" />
        <path
           d="m 111.16508,404.85068 q -0.18424,0 -0.34545,-0.0691 -0.13818,-0.0691 -0.2303,-0.2303 -0.0691,-0.18424 -0.0691,-0.4606 v -9.99504 q 0,-0.34545 0.16121,-0.52969 0.18424,-0.18424 0.50666,-0.18424 0.29939,0 0.4606,0.18424 0.16121,0.18424 0.16121,0.52969 v 9.37323 h -0.55272 l 7.16234,-9.62656 q 0.16121,-0.20727 0.34545,-0.32242 0.18424,-0.13818 0.48364,-0.13818 0.20727,0 0.34545,0.0921 0.13818,0.0691 0.20727,0.2303 0.0921,0.16121 0.0921,0.43757 v 10.01807 q 0,0.32242 -0.18424,0.50666 -0.16121,0.18424 -0.4606,0.18424 -0.32243,0 -0.48364,-0.18424 -0.16121,-0.18424 -0.16121,-0.50666 v -9.37323 h 0.55272 l -7.18537,9.62656 q -0.13818,0.18424 -0.32242,0.29939 -0.18424,0.13818 -0.48363,0.13818 z"
           style="fill:#fcfefb;fill-opacity:1;stroke-width:0.76131368"
           id="path955"
           inkscape:connector-curvature="0" />
        <path
           d="m 124.52754,404.7125 q -0.39151,0 -0.59878,-0.18424 -0.18424,-0.20727 -0.18424,-0.57575 v -9.64959 q 0,-0.36848 0.18424,-0.55272 0.20727,-0.20727 0.59878,-0.20727 h 4.39874 q 1.26665,0 2.09573,0.34545 0.82909,0.32242 1.24363,0.96726 0.41454,0.64484 0.41454,1.63513 0,1.08242 -0.75999,1.81938 -0.73697,0.71393 -1.95756,0.85211 v -0.29939 q 1.3818,0.023 2.23392,0.80605 0.85211,0.75999 0.85211,1.98058 0,1.40484 -1.03635,2.23392 -1.03636,0.82908 -2.90179,0.82908 z m 0.57575,-1.03635 h 4.00723 q 1.24362,0 1.88846,-0.52969 0.66787,-0.55273 0.66787,-1.54302 0,-1.01332 -0.66787,-1.51998 -0.64484,-0.52969 -1.88846,-0.52969 h -4.00723 z m 0,-5.15873 h 3.82299 q 1.12847,0 1.75028,-0.52969 0.64484,-0.52969 0.64484,-1.4509 0,-0.94423 -0.64484,-1.45089 -0.62181,-0.50666 -1.75028,-0.50666 h -3.82299 z"
           style="fill:#fcfefb;fill-opacity:1;stroke-width:0.76131368"
           id="path957"
           inkscape:connector-curvature="0" />
        <path
           d="m 140.55897,404.89674 q -1.56604,0 -2.71754,-0.71393 -1.15151,-0.71393 -1.79635,-2.00362 -0.62181,-1.28968 -0.62181,-3.06299 0,-1.31271 0.34545,-2.3721 0.36848,-1.05938 1.03635,-1.81937 0.69091,-0.78302 1.63514,-1.17453 0.96726,-0.41454 2.11876,-0.41454 1.58907,0 2.74058,0.71393 1.1515,0.71393 1.77331,2.02664 0.64484,1.28969 0.64484,3.03997 0,1.33574 -0.36848,2.39512 -0.34545,1.05938 -1.03635,1.81938 -0.66787,0.75999 -1.61211,1.17453 -0.94423,0.39151 -2.14179,0.39151 z m 0,-1.17453 q 1.1515,0 1.98058,-0.52969 0.85212,-0.55273 1.28969,-1.58908 0.4606,-1.03635 0.4606,-2.48724 0,-2.18786 -1.01332,-3.38542 -0.9903,-1.19756 -2.71755,-1.19756 -1.12847,0 -1.98058,0.55272 -0.82908,0.52969 -1.28969,1.56604 -0.43757,1.01333 -0.43757,2.46422 0,2.21088 1.01333,3.40844 1.01332,1.19757 2.69451,1.19757 z"
           style="fill:#fcfefb;fill-opacity:1;stroke-width:0.76131368"
           id="path959"
           inkscape:connector-curvature="0" />
        <path
           d="m 153.4486,404.89674 q -1.63513,0 -2.80966,-0.71393 -1.17453,-0.73696 -1.81937,-2.04968 -0.62182,-1.33574 -0.62182,-3.08602 0,-1.33574 0.34545,-2.3721 0.36849,-1.05938 1.03636,-1.79634 0.6909,-0.73696 1.65816,-1.12847 0.99029,-0.41454 2.21088,-0.41454 0.85212,0 1.75029,0.29939 0.89817,0.27636 1.63513,0.94423 0.16121,0.13818 0.20727,0.32242 0.0461,0.18424 -0.023,0.36848 -0.0691,0.16121 -0.20727,0.27636 -0.13818,0.0921 -0.34545,0.11515 -0.18424,0 -0.39151,-0.18424 -0.64484,-0.52969 -1.31271,-0.71393 -0.64485,-0.20727 -1.26666,-0.20727 -0.94423,0 -1.65816,0.29939 -0.71393,0.29939 -1.22059,0.87514 -0.48363,0.57575 -0.73696,1.42786 -0.25333,0.82909 -0.25333,1.9115 0,2.16482 0.99029,3.40844 1.01332,1.2206 2.87875,1.2206 0.62181,0 1.26666,-0.18424 0.66787,-0.20727 1.31271,-0.73697 0.20727,-0.18424 0.39151,-0.16121 0.20727,0 0.34545,0.11515 0.13818,0.0921 0.18424,0.27637 0.0691,0.16121 0.023,0.34545 -0.0461,0.18424 -0.20727,0.32242 -0.71393,0.66787 -1.6121,0.94423 -0.89817,0.27636 -1.75029,0.27636 z"
           style="fill:#fcfefb;fill-opacity:1;stroke-width:0.76131368"
           id="path961"
           inkscape:connector-curvature="0" />
        <path
           d="m 162.65594,404.85068 q -0.32242,0 -0.50666,-0.18424 -0.18424,-0.18424 -0.18424,-0.52969 v -9.41929 h -3.63875 q -0.6909,0 -0.6909,-0.59878 0,-0.25333 0.18424,-0.41454 0.18424,-0.16121 0.50666,-0.16121 h 8.68233 q 0.66787,0 0.66787,0.57575 0,0.27636 -0.18424,0.43757 -0.16121,0.16121 -0.48363,0.16121 h -3.63875 v 9.41929 q 0,0.34545 -0.18424,0.52969 -0.16121,0.18424 -0.52969,0.18424 z"
           style="fill:#fcfefb;fill-opacity:1;stroke-width:0.76131368"
           id="path963"
           inkscape:connector-curvature="0" />
        <path
           d="m 170.36273,404.7125 q -0.39151,0 -0.59878,-0.18424 -0.18424,-0.20727 -0.18424,-0.57575 v -9.83383 q 0,-0.36848 0.18424,-0.55272 0.18424,-0.18424 0.52969,-0.18424 0.32242,0 0.50666,0.18424 0.18424,0.18424 0.18424,0.55272 v 3.54663 h 3.56966 q 2.09573,0 3.17815,0.9212 1.10544,0.9212 1.10544,2.57936 0,1.10544 -0.50666,1.9115 -0.48363,0.80605 -1.42787,1.22059 -0.94423,0.41454 -2.34906,0.41454 z m 0.62181,-1.08241 h 3.5236 q 1.3818,0 2.14179,-0.59878 0.78302,-0.59879 0.78302,-1.84241 0,-1.26665 -0.78302,-1.86543 -0.75999,-0.59878 -2.14179,-0.59878 h -3.5236 z"
           style="fill:#fcfefb;fill-opacity:1;stroke-width:0.76131368"
           id="path965"
           inkscape:connector-curvature="0" />
      </g>
    </g>
  </g>
</svg>
