<?xml version="1.0" encoding="UTF-8" standalone="no"?>
<svg
   id="svg679"
   version="1.1"
   viewBox="0 0 56.404709 48.829472"
   height="184.55234"
   width="213.18315"
   sodipodi:docname="heart.svg"
   inkscape:version="1.2.2 (732a01da63, 2022-12-09)"
   xmlns:inkscape="http://www.inkscape.org/namespaces/inkscape"
   xmlns:sodipodi="http://sodipodi.sourceforge.net/DTD/sodipodi-0.dtd"
   xmlns="http://www.w3.org/2000/svg"
   xmlns:svg="http://www.w3.org/2000/svg"
   xmlns:rdf="http://www.w3.org/1999/02/22-rdf-syntax-ns#"
   xmlns:cc="http://creativecommons.org/ns#"
   xmlns:dc="http://purl.org/dc/elements/1.1/">
  <sodipodi:namedview
     pagecolor="#ffffff"
     bordercolor="#666666"
     borderopacity="1"
     objecttolerance="10"
     gridtolerance="10"
     guidetolerance="10"
     inkscape:pageopacity="0"
     inkscape:pageshadow="2"
     inkscape:window-width="1440"
     inkscape:window-height="837"
     id="namedview11"
     showgrid="false"
     inkscape:zoom="1.1920961"
     inkscape:cx="195.03461"
     inkscape:cy="117.4402"
     inkscape:window-x="-8"
     inkscape:window-y="-8"
     inkscape:window-maximized="1"
     inkscape:current-layer="g939"
     units="px"
     inkscape:showpageshadow="2"
     inkscape:pagecheckerboard="0"
     inkscape:deskcolor="#d1d1d1" />
  <defs
     id="defs673" />
  <metadata
     id="metadata676">
    <rdf:RDF>
      <cc:Work
         rdf:about="">
        <dc:format>image/svg+xml</dc:format>
        <dc:type
           rdf:resource="http://purl.org/dc/dcmitype/StillImage" />
      </cc:Work>
    </rdf:RDF>
  </metadata>
  <g
     transform="translate(-97.390163,-94.179099)"
     id="layer1">
    <g
       id="g939">
      <path
         id="path1635"
         d="m 139.65813,94.179099 c 7.80745,8e-5 14.13664,6.329391 14.13674,14.136761 -0.005,2.84361 -0.86792,5.61962 -2.47542,7.96531 l -1.32604,1.66328 c -0.13688,0.14706 -0.27683,0.29075 -0.41984,0.43152 l -5.31332,5.45781 -18.66775,19.17479 -18.66772,-19.17479 -5.31332,-5.45781 c -0.14301,-0.14071 -0.28296,-0.28477 -0.41984,-0.43152 l -1.326038,-1.66328 c -1.6075,-2.34569 -2.470537,-5.1217 -2.475419,-7.96531 9.3e-5,-7.80737 6.329287,-14.136681 14.136727,-14.136761 7.31649,8e-4 13.39882,5.584 14.0656,12.842811 0.66679,-7.258811 6.74914,-12.841691 14.06562,-12.842811 z"
         style="opacity:1;fill:#262658;fill-opacity:1;stroke:none;stroke-width:0.942181;stroke-linecap:round;stroke-miterlimit:4;stroke-dasharray:none;stroke-opacity:1"
         inkscape:connector-curvature="0" />
    </g>
  </g>
</svg>
