<?xml version="1.0" encoding="UTF-8" standalone="no"?>
<svg
   xmlns:dc="http://purl.org/dc/elements/1.1/"
   xmlns:cc="http://creativecommons.org/ns#"
   xmlns:rdf="http://www.w3.org/1999/02/22-rdf-syntax-ns#"
   xmlns:svg="http://www.w3.org/2000/svg"
   xmlns="http://www.w3.org/2000/svg"
   id="svg568"
   version="1.1"
   viewBox="0 0 61.350918 61.350918"
   height="61.350918mm"
   width="61.350918mm">
  <defs
     id="defs562" />
  <metadata
     id="metadata565">
    <rdf:RDF>
      <cc:Work
         rdf:about="">
        <dc:format>image/svg+xml</dc:format>
        <dc:type
           rdf:resource="http://purl.org/dc/dcmitype/StillImage" />
        <dc:title></dc:title>
      </cc:Work>
    </rdf:RDF>
  </metadata>
  <g
     transform="translate(-69.956922,-130.14112)"
     id="layer1">
    <g
       id="g539"
       transform="translate(56.049011,-285.93019)">
      <circle
         style="opacity:0.25500034;fill:#cdced6;fill-opacity:1;stroke:none;stroke-width:0.94218117;stroke-linecap:round;stroke-miterlimit:4;stroke-dasharray:none;stroke-opacity:1"
         id="path1263"
         cx="44.58337"
         cy="446.74677"
         r="30.675459" />
      <g
         id="g1261"
         transform="matrix(0.64189508,0,0,0.64189508,15.94524,146.93923)"
         style="fill:#262658;fill-opacity:1;stroke-width:1.55788696">
        <path
           d="m 22.655546,458.29829 c 0.421269,0.77419 0.877971,1.52469 1.367642,2.25767 0.832232,1.20028 1.70448,2.37158 2.508975,3.59081 0.736516,1.15569 1.164709,2.46347 1.455032,3.7935 0.139865,0.69666 0.214483,1.44278 -0.129766,2.09756 -0.215629,0.41014 -0.37571,0.49877 -0.71843,0.81253 -1.077972,0.78815 -2.379204,1.11318 -3.673894,1.33388 -0.96275,0.13888 -1.936026,0.16936 -2.907238,0.18073 -0.06589,0.002 -0.660451,-0.0113 -0.588819,0.20791 0.04622,0.14146 0.2574,0.26616 0.346693,0.336 0.835196,0.46106 1.791218,0.63873 2.729556,0.74899 0.91289,0.10728 0.778576,0.10451 1.28421,0.09 0.466424,-0.0455 0.935817,-0.0669 1.399267,-0.13637 2.17327,-0.32586 4.311941,-1.07173 6.22519,-2.15111 0.502099,-0.28326 0.97338,-0.61797 1.46007,-0.92696 0.432404,-0.36804 0.892357,-0.70599 1.297215,-1.10413 1.218168,-1.19798 2.180242,-2.69157 2.677802,-4.33429 0.496858,-1.64038 0.378779,-2.12194 0.404246,-3.84585 -0.104716,-0.72099 -0.151257,-1.45286 -0.31415,-2.16298 -0.7918,-3.4518 -2.745762,-6.56728 -5.055806,-9.20344 -0.62876,-0.71753 -1.324954,-1.37303 -1.987431,-2.05955 -2.636576,-2.44935 -5.543451,-4.30103 -8.892209,-5.61716 -1.81646,-0.71391 -2.253472,-0.7624 -4.085889,-1.21754 -1.049092,-0.14568 -2.119199,-0.37124 -3.18914,-0.24668 -0.08819,0.0103 -0.09772,0.1578 -0.17577,0.20013 -0.318079,0.17249 -0.686014,0.24586 -0.994716,0.43463 -0.770584,0.4712 -0.881978,0.79484 -1.385983,1.51945 -0.147984,0.36225 -0.326809,0.71338 -0.443951,1.08674 -0.574627,1.83147 -0.547991,3.88313 -0.102736,5.73796 0.123137,0.51296 0.314552,1.00709 0.471828,1.51063 0.225059,0.47363 0.414223,0.96605 0.675179,1.42089 0.774253,1.34951 1.872183,2.46691 3.162718,3.32829 1.07663,0.71862 1.578353,0.86747 2.759559,1.37017 2.217293,0.7845 4.560893,1.12825 6.904428,1.20205 0,0 -1.154561,0.17825 -1.154561,0.17825 v 0 c -2.305232,-0.10836 -4.608223,-0.46664 -6.783648,-1.25936 -1.185476,-0.51527 -1.679872,-0.66504 -2.759171,-1.39688 -1.297439,-0.87976 -2.389758,-2.00855 -3.162601,-3.37689 -0.259944,-0.46023 -0.449401,-0.95686 -0.6741,-1.43529 -0.158376,-0.5081 -0.350036,-1.007 -0.475128,-1.5243 -0.4483319,-1.854 -0.4978639,-3.9549 0.04185,-5.79689 0.111653,-0.38105 0.284681,-0.74138 0.427021,-1.11207 0.504049,-0.75412 0.608869,-1.08568 1.396873,-1.58049 1.094112,-0.68702 1.940075,-0.6029 3.314453,-0.67066 1.315737,-0.0648 1.767059,0.0786 3.108168,0.28261 1.797205,0.46797 2.232748,0.52341 4.015324,1.24225 3.323701,1.34032 6.217156,3.20179 8.830278,5.65653 0.663226,0.68909 1.359263,1.34805 1.989683,2.06729 2.325954,2.65363 4.325771,5.77888 5.162138,9.24531 0.172343,0.71429 0.227269,1.4519 0.340905,2.17784 -0.005,1.73544 0.120777,2.22766 -0.363897,3.88395 -0.486404,1.6622 -1.447684,3.16989 -2.671724,4.38276 -0.406363,0.40266 -0.868152,0.74523 -1.302229,1.11785 -0.487562,0.31238 -0.959793,0.65008 -1.462683,0.93713 -1.898313,1.08353 -4.016588,1.84679 -6.175593,2.19533 -0.456518,0.0737 -0.919404,0.10031 -1.379104,0.15046 -0.78006,-3.6e-4 -1.56044,0.0214 -2.340178,-0.001 -0.593887,-0.0171 -1.505161,-0.13464 -2.103382,-0.25029 -0.496409,-0.096 -0.957748,-0.21367 -1.421257,-0.41323 -0.154694,-0.0666 -0.29776,-0.15749 -0.446638,-0.23624 -0.170516,-0.14924 -0.337718,-0.23205 -0.383697,-0.46805 -0.06812,-0.34963 0.424699,-0.3725 0.635987,-0.37532 0.985323,-0.003 1.972788,-0.0257 2.950941,-0.1552 1.283898,-0.20304 2.574923,-0.5064 3.65485,-1.26793 0.318909,-0.28078 0.496995,-0.38607 0.704487,-0.75714 0.349581,-0.62519 0.275396,-1.35476 0.148347,-2.02754 -0.282318,-1.31786 -0.701334,-2.60847 -1.43548,-3.75076 -0.803046,-1.2225 -1.68062,-2.39248 -2.522098,-3.58855 -0.507049,-0.74014 -0.97226,-1.50485 -1.456263,-2.25931 0,0 1.268441,-0.0686 1.268441,-0.0686 z"
           id="path1229"
           style="opacity:1;fill:#262658;fill-opacity:1;stroke:none;stroke-width:1.46781194;stroke-linecap:round;stroke-miterlimit:4;stroke-dasharray:none;stroke-opacity:1" />
        <path
           d="m 34.000891,458.94063 c 1.00606,0.86638 2.003563,1.74046 2.966843,2.65451 1.729692,1.66564 3.325752,3.46372 4.884199,5.28859 0.652062,0.76478 1.314703,1.52009 1.9765,2.27639 0,0 -1.196631,0.0843 -1.196631,0.0843 v 0 c -0.626063,-0.76365 -1.257597,-1.52283 -1.888096,-2.28283 -1.536925,-1.8425 -3.136188,-3.63866 -4.894574,-5.27452 -1.002928,-0.92163 -2.040518,-1.80137 -3.108179,-2.64723 0,0 1.259938,-0.0992 1.259938,-0.0992 z"
           id="path1231"
           style="opacity:1;fill:#262658;fill-opacity:1;stroke:none;stroke-width:1.46781194;stroke-linecap:round;stroke-miterlimit:4;stroke-dasharray:none;stroke-opacity:1" />
        <path
           d="m 40.188251,459.71611 c -1.055072,0.85805 -1.925848,1.92296 -2.672303,3.05474 -0.221028,0.33513 -0.422335,0.68284 -0.633502,1.02427 -0.886414,1.53307 -1.685395,3.13718 -2.163953,4.84932 -0.06448,0.2307 -0.110403,0.46619 -0.165604,0.69929 -0.0668,0.48293 -0.162045,0.98022 -0.103342,1.4706 0.0114,0.0953 0.04397,0.18685 0.06596,0.28027 0,0 -1.237111,0.0245 -1.237111,0.0245 v 0 c -0.01707,-0.10106 -0.04423,-0.20093 -0.0512,-0.30317 -0.03432,-0.50365 0.07148,-1.00871 0.156397,-1.50095 0.06227,-0.2357 0.115464,-0.47399 0.186822,-0.7071 0.524074,-1.71205 1.332761,-3.32423 2.220068,-4.87285 0.904876,-1.49235 1.842054,-2.94421 3.147055,-4.12478 0,0 1.250711,0.10583 1.250711,0.10583 z"
           id="path1233"
           style="opacity:1;fill:#262658;fill-opacity:1;stroke:none;stroke-width:1.46781194;stroke-linecap:round;stroke-miterlimit:4;stroke-dasharray:none;stroke-opacity:1" />
        <path
           d="m 37.808667,458.50222 c 0.19773,0.70699 0.328187,1.43073 0.500058,2.14401 0.04465,0.18532 0.444856,1.72565 0.478494,1.85542 0.5247,1.94471 1.14377,3.862 1.821445,5.75831 0.3344,0.90543 0.173729,0.47226 0.481718,1.29961 0,0 -1.184309,0.0404 -1.184309,0.0404 v 0 c -0.280724,-0.82909 -0.132216,-0.39513 -0.446374,-1.30158 -0.645802,-1.90729 -1.249945,-3.82887 -1.795474,-5.76736 -0.171785,-0.61934 -0.350651,-1.23674 -0.516467,-1.85769 -0.19017,-0.71218 -0.33921,-1.43929 -0.599836,-2.1306 0,0 1.260745,-0.0406 1.260745,-0.0406 z"
           id="path1235"
           style="opacity:1;fill:#262658;fill-opacity:1;stroke:none;stroke-width:1.46781194;stroke-linecap:round;stroke-miterlimit:4;stroke-dasharray:none;stroke-opacity:1" />
        <path
           d="m 46.470213,460.42356 c -0.199224,0.6222 -0.263249,1.2735 -0.316265,1.92116 -0.06441,0.80951 -0.09591,1.51582 0.224452,2.27572 0.10497,0.1792 0.227199,0.36692 0.416995,0.46842 0.303031,0.16205 1.703226,0.094 -0.806638,0.039 0.534308,-0.21062 0.693907,-0.87372 0.849999,-1.36688 0.226938,-0.76812 0.368182,-1.55912 0.486831,-2.35032 0.0056,-0.31552 0.175265,-0.81749 0.03965,-1.11329 -0.263597,-0.13494 -2.093649,-0.10468 0.945783,-0.0283 0.06509,10e-4 -0.128585,0.0211 -0.192077,0.0356 -0.181199,0.033 -0.358432,0.0813 -0.533899,0.13654 0,0 -1.251462,-0.1554 -1.251462,-0.1554 v 0 c 0.170826,-0.0652 0.34714,-0.12194 0.528281,-0.14976 0.570889,-0.14661 0.453688,-0.0781 1.539837,-0.0569 0.106745,0.002 0.184743,0.0937 0.2314,0.17663 0.09952,0.38293 -0.04191,0.79095 -0.07514,1.17458 -0.135616,0.79485 -0.282419,1.58978 -0.501653,2.36643 -0.157902,0.54889 -0.315056,1.17428 -0.818948,1.5103 -1.139843,0.0149 -1.593991,0.30417 -2.095514,-0.6397 -0.2959,-0.78645 -0.26056,-1.50482 -0.204492,-2.33209 0.04885,-0.65602 0.110506,-1.31117 0.264433,-1.95249 0,0 1.268438,0.0408 1.268438,0.0408 z"
           id="path1237"
           style="opacity:1;fill:#262658;fill-opacity:1;stroke:none;stroke-width:1.46781194;stroke-linecap:round;stroke-miterlimit:4;stroke-dasharray:none;stroke-opacity:1" />
        <path
           d="m 51.264681,459.55919 c 0.106647,1.1092 0.241575,2.21467 0.332434,3.32558 0.042,0.56338 0.07762,1.12718 0.111851,1.69107 0,0 -1.209092,0.005 -1.209092,0.005 v 0 c -0.0169,-0.56271 -0.03555,-1.12548 -0.07908,-1.68692 -0.09169,-1.11342 -0.223223,-2.22182 -0.416083,-3.32266 0,0 1.259966,-0.0126 1.259966,-0.0126 z"
           id="path1239"
           style="opacity:1;fill:#262658;fill-opacity:1;stroke:none;stroke-width:1.46781194;stroke-linecap:round;stroke-miterlimit:4;stroke-dasharray:none;stroke-opacity:1" />
        <path
           d="m 50.6135,463.03124 c 0.588511,-0.085 1.15465,-0.27327 1.71825,-0.45623 0.391869,-0.15819 0.832007,-0.24686 1.164598,-0.51953 0.02796,-0.0416 0.0623,-0.0796 0.08387,-0.1248 0.18047,-0.37858 0.15186,-1.14777 0.16225,-1.56042 -5.22e-4,-0.75989 0.08346,-1.53748 -0.18435,-2.26303 -0.02957,-0.0449 -0.04333,-0.10575 -0.0887,-0.1345 -0.02299,-0.0145 -0.102909,0.0272 -0.07586,0.0302 0.398773,0.044 0.824678,-0.0482 1.199915,0.0938 0.106017,0.0401 -0.05664,0.21979 -0.07562,0.33154 -0.09481,0.55819 -0.06933,0.5703 -0.07886,1.18125 0.02572,1.78731 0.484696,3.51011 1.041037,5.19488 0.07199,0.20499 0.143979,0.40998 0.215968,0.61498 0,0 -1.18098,0.0381 -1.18098,0.0381 v 0 c -0.06506,-0.20577 -0.130125,-0.41153 -0.195188,-0.61729 -0.522046,-1.70577 -0.973816,-3.43895 -1.059077,-5.23041 -0.01274,-0.67602 -0.03288,-0.58986 0.02817,-1.20312 0.01188,-0.11934 -0.06379,-0.31063 0.04694,-0.35673 0.909052,-0.37845 1.202593,-0.54648 1.465764,0.017 0.229414,0.75007 0.148295,1.53087 0.15593,2.30536 -0.0041,0.5723 0.06044,1.2672 -0.205861,1.78868 -0.324893,0.31748 -0.783606,0.40606 -1.196187,0.56903 -0.557218,0.17817 -1.11193,0.3705 -1.687656,0.48177 0,0 -1.254363,-0.18046 -1.254363,-0.18046 z"
           id="path1241"
           style="opacity:1;fill:#262658;fill-opacity:1;stroke:none;stroke-width:1.46781194;stroke-linecap:round;stroke-miterlimit:4;stroke-dasharray:none;stroke-opacity:1" />
        <path
           d="m 32.800228,465.42072 c 0.417199,1.30734 0.941131,2.57816 1.468915,3.84385 1.04223,2.56035 2.329814,5.00505 3.628304,7.44138 1.183418,2.17209 2.448749,4.29733 3.740512,6.40622 0.837669,1.37826 1.689202,2.74908 2.482107,4.15386 0.178498,0.40163 0.612841,0.98003 0.47461,1.45167 -0.02059,0.0702 -0.06383,0.13178 -0.09575,0.19766 -0.04961,0.0538 -0.09288,0.11434 -0.148833,0.16156 -0.53533,0.45182 -1.486712,0.39427 -2.127011,0.40337 -0.680431,-0.0231 -1.362351,-0.0189 -2.041293,-0.0694 -0.344604,-0.0257 -0.684509,-0.0967 -1.024418,-0.15893 -1.484075,-0.27163 -2.92042,-0.70622 -4.353248,-1.17014 -0.826389,-0.28833 -1.655423,-0.56862 -2.477799,-0.86831 -0.165641,-0.0604 -0.33222,-0.11834 -0.496051,-0.18346 -0.07598,-0.0302 -0.192722,-0.0264 -0.222924,-0.1023 -0.02561,-0.0644 0.0752,-0.1165 0.112805,-0.17472 0.553156,0.022 1.108021,0.0175 1.659467,0.0661 0.241337,0.0213 0.474478,0.0984 0.712531,0.14346 0.326088,0.0617 0.652187,0.1238 0.97981,0.17674 1.33269,0.21542 2.649613,0.33222 3.995258,0.42865 0.516527,0.003 1.033696,0.0332 1.549582,0.007 0.18706,-0.009 0.36616,-0.0794 0.550498,-0.11254 0.520845,-0.0936 1.04899,-0.14969 1.564835,-0.26779 0.999776,-0.22891 2.011142,-0.56713 2.916873,-1.05618 0.431819,-0.23316 0.821602,-0.53693 1.232404,-0.80539 0.849932,-0.8124 1.301188,-1.10413 1.839699,-2.1838 0.868501,-1.74127 0.943292,-3.78247 0.733664,-5.67648 -0.09619,-0.86911 -0.301026,-1.72272 -0.451538,-2.58409 -0.266627,-0.92419 -0.48945,-1.86217 -0.799879,-2.77258 -1.24827,-3.66089 -3.144378,-7.15648 -5.718894,-10.05833 -0.559305,-0.63042 -1.191514,-1.19218 -1.787273,-1.78828 -2.070365,-1.8213 -4.459564,-3.22476 -7.110986,-4.00653 -1.36972,-0.40386 -1.665093,-0.38063 -3.0392,-0.53815 -1.315632,0.15607 -2.540766,0.58759 -3.582528,1.42134 -0.769853,0.61612 -1.019377,1.01411 -1.630073,1.77667 -0.83049,1.28494 -1.689668,2.63272 -2.048157,4.14017 -0.0025,0.0433 -0.03401,0.26205 0.01061,0.33382 0.009,0.0145 0.03405,0.003 0.05107,0.005 0,0 -1.269786,0.10058 -1.269786,0.10058 v 0 c -0.07877,-0.15766 -0.05526,-0.29738 -0.01936,-0.47207 0.465567,-1.50939 1.334343,-2.8656 2.186101,-4.18068 0.252249,-0.31945 0.484408,-0.65583 0.756749,-0.95833 0.557943,-0.61972 1.131485,-1.12773 1.866232,-1.53128 1.599238,-0.87839 2.894309,-0.81699 4.721856,-0.78741 1.355464,0.17248 1.641276,0.15248 2.989923,0.56791 2.620133,0.80708 4.969886,2.22698 6.999757,4.06019 0.586139,0.60012 1.20887,1.16656 1.758413,1.80037 2.541483,2.93114 4.411141,6.44337 5.691036,10.0914 0.320573,0.91372 0.560991,1.85361 0.841486,2.78042 0.169479,0.86512 0.391727,1.72155 0.508438,2.59536 0.254006,1.90169 0.243261,3.97193 -0.605691,5.74312 -0.524394,1.09406 -0.997641,1.40556 -1.847009,2.22549 -1.189202,0.7851 -1.29563,0.95164 -2.65824,1.45464 -2.344767,0.86552 -4.768682,0.89245 -7.237787,0.83287 -0.497771,-0.0356 -0.996279,-0.0621 -1.49331,-0.10674 -1.20823,-0.10871 -2.404089,-0.29074 -3.599167,-0.49423 -0.253746,-0.0432 -0.808034,0.12171 -0.760941,-0.13133 0.04866,-0.26145 0.530544,-0.0374 0.795815,-0.0561 -0.04119,-0.0489 -0.16946,-0.10229 -0.123559,-0.14683 0.04792,-0.0465 0.114688,0.0692 0.17579,0.0961 0.152083,0.0671 0.30775,0.12587 0.462842,0.1857 0.800312,0.30878 1.612247,0.58592 2.421176,0.87091 1.073689,0.34908 2.144489,0.68318 3.247648,0.92942 0.367731,0.0821 0.737034,0.158 1.108416,0.22153 0.347054,0.0594 0.704891,0.0598 1.046001,0.14708 0.08108,0.0207 -0.162849,0.0387 -0.244273,0.058 0.723307,-0.004 1.595056,0.0616 2.181183,-0.4451 0.0316,-0.0514 0.07322,-0.0978 0.09479,-0.15413 0.154667,-0.40384 -0.285255,-1.01865 -0.41931,-1.37304 -0.748621,-1.4127 -1.571897,-2.78395 -2.39657,-4.1531 -1.273108,-2.11309 -2.511786,-4.24654 -3.688283,-6.4152 -1.296319,-2.4474 -2.584771,-4.90014 -3.675997,-7.44821 -0.562703,-1.27221 -1.111209,-2.55059 -1.62495,-3.84346 0,0 1.26288,-0.0453 1.26288,-0.0453 z"
           id="path1243"
           style="opacity:1;fill:#262658;fill-opacity:1;stroke:none;stroke-width:1.46781194;stroke-linecap:round;stroke-miterlimit:4;stroke-dasharray:none;stroke-opacity:1" />
        <path
           d="m 50.386763,471.1044 c -0.493698,0.58286 -0.674372,1.39098 -0.669114,2.14156 0.0018,0.25221 0.03979,0.50287 0.05968,0.75432 0.201228,1.35484 0.851369,2.53882 1.784881,3.52784 0.162891,0.17257 0.341926,0.32916 0.51289,0.49374 0.5813,0.51544 1.235912,0.92993 1.996717,1.11572 0.482459,0.11782 0.672258,0.11388 1.1682,0.1554 -0.186111,-0.009 -0.640196,0.13922 -0.558332,-0.0282 0.09354,-0.19126 0.422905,-0.0589 0.62832,-0.11494 0.696917,-0.19005 1.334383,-0.5739 1.888876,-1.02896 0.208926,-0.17147 0.39752,-0.36631 0.59628,-0.54945 0.714578,-0.78938 1.336267,-1.73279 1.352747,-2.83922 0.01156,-0.77629 -0.140976,-0.94583 -0.426012,-1.66678 -0.194397,-0.28347 -0.361325,-0.58789 -0.583192,-0.85042 -1.015821,-1.20199 -2.499378,-2.00467 -3.975001,-2.49139 -0.373067,-0.12305 -0.758972,-0.20309 -1.138457,-0.30463 -1.143603,-0.18455 -1.144018,-0.22259 -2.297761,-0.25876 -0.01359,-3.6e-4 -0.0051,0.0344 -0.01859,0.0363 -0.348412,0.0487 -0.700925,0.0641 -1.04933,0.11278 -0.758309,0.10598 -1.132948,0.20447 -1.866432,0.36855 -0.932945,0.25501 -0.492888,0.12148 -1.322223,0.39377 0,0 -1.175236,-0.14851 -1.175236,-0.14851 v 0 c 0.859804,-0.27578 0.40463,-0.14064 1.367448,-0.39887 0.722068,-0.16104 1.148956,-0.2697 1.891835,-0.37744 1.841496,-0.26707 3.734518,-0.23971 5.558611,0.12945 0.378997,0.10577 0.764622,0.19016 1.136989,0.31731 1.489508,0.50863 2.976867,1.33817 4.004742,2.55408 0.228714,0.27055 0.402374,0.58321 0.603561,0.87482 0.298181,0.74913 0.454766,0.91942 0.445252,1.72636 -0.01333,1.13019 -0.635009,2.10185 -1.357275,2.91705 -0.589483,0.56057 -1.104376,1.0384 -1.845475,1.40041 -0.976926,0.4772 -1.945725,0.44714 -3.03753,0.4018 -0.492154,-0.0503 -0.703352,-0.0515 -1.181502,-0.18044 -0.758819,-0.20464 -1.401471,-0.64719 -1.974984,-1.17271 -0.168794,-0.16835 -0.345747,-0.32889 -0.506384,-0.50505 -0.929166,-1.01891 -1.570713,-2.22992 -1.786795,-3.5996 -0.02405,-0.25708 -0.06484,-0.51313 -0.07215,-0.77123 -0.02229,-0.78679 0.1508,-1.58254 0.584123,-2.2454 0,0 1.260625,0.11072 1.260625,0.11072 z"
           id="path1245"
           style="opacity:1;fill:#262658;fill-opacity:1;stroke:none;stroke-width:1.46781194;stroke-linecap:round;stroke-miterlimit:4;stroke-dasharray:none;stroke-opacity:1" />
        <path
           d="m 59.136465,465.96966 c 0.273783,0.84758 0.406892,1.72908 0.641392,2.58857 0.399168,1.54982 1.050808,2.99323 1.850929,4.37262 0.375517,0.51237 0.812279,1.30842 1.458067,1.53903 0.140781,0.0503 0.593133,0.065 0.443646,0.0655 -0.431163,0.002 -0.86132,-0.0418 -1.291981,-0.0626 1.334397,-0.28826 2.491857,-1.05787 3.337419,-2.12422 0.206911,-0.26094 0.381844,-0.54571 0.572766,-0.81856 0.908016,-1.582 1.513913,-3.33126 1.923451,-5.10489 0.01786,-0.12531 0.03571,-0.25061 0.05357,-0.37591 -0.02179,-0.0152 -0.09174,-0.0486 -0.06536,-0.0456 0.58103,0.0665 1.220883,-0.0354 1.738383,0.23706 0.179244,0.0944 -0.143252,0.37977 -0.194222,0.57582 -0.249007,0.95774 -0.210238,1.09143 -0.302153,2.15263 -0.102903,3.17789 0.760802,6.2489 1.924979,9.17725 0.282568,0.71077 0.602311,1.40619 0.903466,2.10928 1.20344,2.56586 2.625554,5.02421 4.211812,7.37161 0.481667,0.71279 1.357891,1.92024 1.87609,2.64017 0.885852,1.31352 2.043085,2.46867 2.746482,3.90057 0.01487,0.0854 0.05351,0.17005 0.04462,0.25633 -0.04109,0.39899 -0.599112,0.45339 -0.88568,0.46053 -2.236439,0.0556 -1.869104,0.0627 -3.404996,-0.10716 -3.296989,-0.48265 -6.329293,-1.93153 -9.300507,-3.36539 -2.722148,-1.40184 -5.416113,-2.87326 -8.009025,-4.50423 -0.464165,-0.34339 -1.311966,-0.80588 -1.182356,-1.52633 0.02155,-0.1198 0.08579,-0.22782 0.128689,-0.34172 0.65039,-0.94444 1.601648,-1.63233 2.472864,-2.36099 0,0 1.763409,0.15527 1.763409,0.15527 v 0 c -0.849065,0.6988 -1.758011,1.37197 -2.399494,2.27734 -0.03978,0.0874 -0.09943,0.1682 -0.119348,0.26212 -0.130224,0.61414 0.733084,1.05543 1.086511,1.35945 2.498747,1.67067 5.124277,3.15181 7.807188,4.50423 3.023306,1.43473 6.118446,2.86318 9.473933,3.28477 0.31803,0.0274 1.187863,-0.13512 0.95409,0.0822 -0.259471,0.24125 -0.708673,0.0319 -1.062727,0.0188 -0.348341,-0.013 0.770689,0.0381 0.824585,-0.17171 0.01698,-0.0661 -0.01559,-0.13563 -0.02338,-0.20347 -0.628055,-1.42251 -1.733723,-2.57932 -2.563171,-3.87929 -2.215474,-3.20964 -4.350552,-6.48772 -5.963888,-10.05124 -0.304044,-0.70559 -0.625326,-1.404 -0.912133,-2.11677 -1.187749,-2.9518 -2.107426,-6.03359 -2.085209,-9.24302 0.05702,-1.18209 0.01137,-1.12891 0.204131,-2.19011 0.0376,-0.20698 -0.05658,-0.53802 0.138956,-0.61564 0.617047,-0.24494 1.315395,-0.20259 1.978901,-0.22507 0.18216,-0.006 -0.315175,0.83918 -0.07115,0.54215 -0.482089,1.77972 -1.090311,3.54798 -1.983946,5.1651 -0.422819,0.62543 -0.66142,1.04601 -1.199358,1.5792 -0.732414,0.72595 -1.661854,1.24217 -2.647896,1.52365 -0.265097,0.005 -2.013282,0.26533 -2.753068,-0.0876 -0.658439,-0.31411 -1.019939,-1.06676 -1.416887,-1.62692 -0.783895,-1.40246 -1.432018,-2.86338 -1.863261,-4.41535 -0.249408,-0.85771 -0.406658,-1.74255 -0.725399,-2.57747 0,0 1.866265,-0.0601 1.866265,-0.0601 z"
           id="path1247"
           style="opacity:1;fill:#262658;fill-opacity:1;stroke:none;stroke-width:1.46781194;stroke-linecap:round;stroke-miterlimit:4;stroke-dasharray:none;stroke-opacity:1" />
      </g>
    </g>
  </g>
</svg>
