<?xml version="1.0" encoding="UTF-8" standalone="no"?>
<svg
   xmlns:dc="http://purl.org/dc/elements/1.1/"
   xmlns:cc="http://creativecommons.org/ns#"
   xmlns:rdf="http://www.w3.org/1999/02/22-rdf-syntax-ns#"
   xmlns:svg="http://www.w3.org/2000/svg"
   xmlns="http://www.w3.org/2000/svg"
   xmlns:sodipodi="http://sodipodi.sourceforge.net/DTD/sodipodi-0.dtd"
   xmlns:inkscape="http://www.inkscape.org/namespaces/inkscape"
   id="svg657"
   version="1.1"
   viewBox="0 0 79.374996 79.375001"
   height="300"
   width="300"
   sodipodi:docname="knowledge.svg"
   inkscape:version="0.92.5 (2060ec1f9f, 2020-04-08)">
  <sodipodi:namedview
     pagecolor="#ffffff"
     bordercolor="#666666"
     borderopacity="1"
     objecttolerance="10"
     gridtolerance="10"
     guidetolerance="10"
     inkscape:pageopacity="0"
     inkscape:pageshadow="2"
     inkscape:window-width="1440"
     inkscape:window-height="837"
     id="namedview11"
     showgrid="false"
     inkscape:zoom="1.2944206"
     inkscape:cx="136.0367"
     inkscape:cy="73.146324"
     inkscape:window-x="-8"
     inkscape:window-y="-8"
     inkscape:window-maximized="1"
     inkscape:current-layer="layer1"
     units="px" />
  <defs
     id="defs651" />
  <metadata
     id="metadata654">
    <rdf:RDF>
      <cc:Work
         rdf:about="">
        <dc:format>image/svg+xml</dc:format>
        <dc:type
           rdf:resource="http://purl.org/dc/dcmitype/StillImage" />
        <dc:title></dc:title>
      </cc:Work>
    </rdf:RDF>
  </metadata>
  <g
     transform="translate(-92.820231,-88.179111)"
     id="layer1">
    <g
       aria-label="– Доскональное знание законов"
       transform="matrix(0.20009376,0,0,0.20009376,95.773331,48.171113)"
       style="font-style:normal;font-variant:normal;font-weight:300;font-stretch:normal;font-size:23.03004074px;line-height:1;font-family:Nunito;-inkscape-font-specification:'Nunito Light';font-variant-ligatures:normal;font-variant-position:normal;font-variant-caps:normal;font-variant-numeric:normal;font-variant-alternates:normal;font-feature-settings:normal;text-indent:0;text-align:start;text-decoration:none;text-decoration-line:none;text-decoration-style:solid;text-decoration-color:#000000;letter-spacing:0px;word-spacing:0px;text-transform:none;writing-mode:lr-tb;direction:ltr;text-orientation:mixed;dominant-baseline:auto;baseline-shift:baseline;text-anchor:start;white-space:normal;shape-padding:0;opacity:1;vector-effect:none;fill:#262658;fill-opacity:1;stroke:none;stroke-width:0.76131368;stroke-linecap:butt;stroke-linejoin:miter;stroke-miterlimit:4;stroke-dasharray:none;stroke-dashoffset:0;stroke-opacity:1"
       id="flowRoot936-2-9-4">
      <path
         id="path63"
         style="stroke-width:0.76131368"
         d="m 347.36119,404.7125 q -0.39151,0 -0.59878,-0.18424 -0.18424,-0.20727 -0.18424,-0.57575 v -9.64959 q 0,-0.36848 0.18424,-0.55272 0.20727,-0.20727 0.59878,-0.20727 h 4.39874 q 1.26665,0 2.09573,0.34545 0.82908,0.32242 1.24362,0.96726 0.41455,0.64484 0.41455,1.63513 0,1.08242 -0.76,1.81938 -0.73696,0.71393 -1.95755,0.85211 v -0.29939 q 1.3818,0.023 2.23391,0.80605 0.85212,0.75999 0.85212,1.98058 0,1.40484 -1.03636,2.23392 -1.03635,0.82908 -2.90178,0.82908 z m 0.57575,-1.03635 h 4.00723 q 1.24362,0 1.88846,-0.52969 0.66787,-0.55273 0.66787,-1.54302 0,-1.01332 -0.66787,-1.51998 -0.64484,-0.52969 -1.88846,-0.52969 h -4.00723 z m 0,-5.15873 h 3.82299 q 1.12847,0 1.75028,-0.52969 0.64484,-0.52969 0.64484,-1.4509 0,-0.94423 -0.64484,-1.45089 -0.62181,-0.50666 -1.75028,-0.50666 h -3.82299 z m -9.68845,6.37932 q -1.56604,0 -2.71754,-0.71393 -1.1515,-0.71393 -1.79635,-2.00362 -0.62181,-1.28968 -0.62181,-3.06299 0,-1.31271 0.34545,-2.3721 0.36848,-1.05938 1.03636,-1.81937 0.6909,-0.78302 1.63513,-1.17453 0.96726,-0.41454 2.11876,-0.41454 1.58908,0 2.74058,0.71393 1.1515,0.71393 1.77331,2.02664 0.64484,1.28969 0.64484,3.03997 0,1.33574 -0.36848,2.39512 -0.34545,1.05938 -1.03635,1.81938 -0.66787,0.75999 -1.6121,1.17453 -0.94424,0.39151 -2.1418,0.39151 z m 0,-1.17453 q 1.1515,0 1.98059,-0.52969 0.85211,-0.55273 1.28968,-1.58908 0.4606,-1.03635 0.4606,-2.48724 0,-2.18786 -1.01332,-3.38542 -0.99029,-1.19756 -2.71755,-1.19756 -1.12847,0 -1.98058,0.55272 -0.82908,0.52969 -1.28968,1.56604 -0.43757,1.01333 -0.43757,2.46422 0,2.21088 1.01332,3.40844 1.01332,1.19757 2.69451,1.19757 z m -17.00015,1.12847 q -0.34545,0 -0.52969,-0.18424 -0.18424,-0.18424 -0.18424,-0.52969 v -10.01807 q 0,-0.36848 0.18424,-0.55272 0.18424,-0.18424 0.52969,-0.18424 0.32242,0 0.50666,0.18424 0.18424,0.18424 0.18424,0.55272 v 4.23753 h 6.60962 v -4.23753 q 0,-0.36848 0.18424,-0.55272 0.18424,-0.18424 0.50666,-0.18424 0.34545,0 0.52969,0.18424 0.18424,0.18424 0.18424,0.55272 v 10.01807 q 0,0.34545 -0.18424,0.52969 -0.18424,0.18424 -0.52969,0.18424 -0.32242,0 -0.50666,-0.18424 -0.18424,-0.18424 -0.18424,-0.52969 v -4.60601 h -6.60962 v 4.60601 q 0,0.34545 -0.18424,0.52969 -0.16121,0.18424 -0.50666,0.18424 z m -9.04361,0.0461 q -1.56604,0 -2.71754,-0.71393 -1.15151,-0.71393 -1.79635,-2.00362 -0.62181,-1.28968 -0.62181,-3.06299 0,-1.31271 0.34545,-2.3721 0.36848,-1.05938 1.03635,-1.81937 0.6909,-0.78302 1.63514,-1.17453 0.96726,-0.41454 2.11876,-0.41454 1.58907,0 2.74058,0.71393 1.1515,0.71393 1.77331,2.02664 0.64484,1.28969 0.64484,3.03997 0,1.33574 -0.36848,2.39512 -0.34545,1.05938 -1.03635,1.81938 -0.66787,0.75999 -1.61211,1.17453 -0.94423,0.39151 -2.14179,0.39151 z m 0,-1.17453 q 1.1515,0 1.98058,-0.52969 0.85212,-0.55273 1.28969,-1.58908 0.4606,-1.03635 0.4606,-2.48724 0,-2.18786 -1.01332,-3.38542 -0.9903,-1.19756 -2.71755,-1.19756 -1.12847,0 -1.98058,0.55272 -0.82908,0.52969 -1.28969,1.56604 -0.43757,1.01333 -0.43757,2.46422 0,2.21088 1.01333,3.40844 1.01332,1.19757 2.69451,1.19757 z m -15.51575,1.12847 q -0.34545,0 -0.52969,-0.18424 -0.18424,-0.18424 -0.18424,-0.52969 v -9.94898 q 0,-0.36848 0.18424,-0.55272 0.18424,-0.18424 0.52969,-0.18424 0.32242,0 0.50666,0.18424 0.18424,0.18424 0.18424,0.55272 v 4.16844 h 2.30301 l 3.66177,-4.58298 q 0.16121,-0.2303 0.36848,-0.27636 0.2303,-0.0691 0.41455,0 0.18424,0.0461 0.29939,0.20727 0.11515,0.16121 0.0921,0.39151 0,0.20727 -0.16121,0.43757 l -3.47754,4.35268 -0.48363,-0.43757 q 0.66787,0.0691 1.12847,0.29939 0.4606,0.2303 0.89817,0.75999 0.4606,0.52969 1.03635,1.47392 l 1.77332,2.90179 q 0.11515,0.2303 0.0921,0.43757 -0.023,0.18424 -0.18424,0.34545 -0.13818,0.13818 -0.34545,0.16121 -0.18424,0.0461 -0.39151,-0.0461 -0.18424,-0.0691 -0.34545,-0.29939 l -1.93453,-3.20118 q -0.43757,-0.6909 -0.82908,-1.05938 -0.36848,-0.39151 -0.85211,-0.55272 -0.4606,-0.16121 -1.17453,-0.16121 h -1.88847 v 4.62904 q 0,0.34545 -0.18424,0.52969 -0.18424,0.18424 -0.50666,0.18424 z m -9.44915,0.0461 q -1.12847,0 -2.02664,-0.43757 -0.87515,-0.43757 -1.40484,-1.19756 -0.50666,-0.76 -0.50666,-1.70423 0,-1.24362 0.62181,-1.95755 0.62181,-0.71393 2.09574,-0.99029 1.47392,-0.29939 4.05328,-0.29939 h 0.9903 v 1.03635 h -0.96727 q -2.0727,0 -3.24723,0.18424 -1.1515,0.16121 -1.6121,0.62181 -0.46061,0.4606 -0.46061,1.28968 0,1.03635 0.71394,1.6812 0.71393,0.64484 1.93452,0.64484 0.99029,0 1.72725,-0.4606 0.75999,-0.48363 1.19756,-1.31272 0.43758,-0.82908 0.43758,-1.88846 v -2.62542 q 0,-1.54302 -0.62182,-2.23392 -0.62181,-0.71393 -1.98058,-0.71393 -0.87514,0 -1.70422,0.2303 -0.80605,0.2303 -1.72726,0.73696 -0.25333,0.13818 -0.4606,0.0921 -0.18424,-0.0461 -0.29939,-0.18424 -0.0921,-0.13818 -0.13818,-0.32242 -0.023,-0.20727 0.0691,-0.39151 0.0921,-0.18424 0.32242,-0.29939 0.96727,-0.52969 1.95756,-0.78302 1.01332,-0.27636 1.95755,-0.27636 1.35877,0 2.23391,0.4606 0.89818,0.4606 1.31272,1.3818 0.43757,0.9212 0.43757,2.3721 v 6.58659 q 0,0.34545 -0.16121,0.52969 -0.16121,0.18424 -0.48363,0.18424 -0.32242,0 -0.50666,-0.18424 -0.18424,-0.18424 -0.18424,-0.52969 v -2.11877 h 0.2303 q -0.20727,0.89818 -0.73697,1.54302 -0.52969,0.64484 -1.31271,0.99029 -0.78302,0.34545 -1.75028,0.34545 z m -11.15411,0 q -1.19756,0 -2.34906,-0.29939 -1.12847,-0.29939 -1.88846,-0.87514 -0.2303,-0.16121 -0.32242,-0.34545 -0.0691,-0.20727 -0.023,-0.39151 0.0461,-0.18425 0.16121,-0.2994 0.13818,-0.13818 0.34545,-0.13818 0.2303,-0.023 0.4606,0.16121 0.73696,0.5297 1.68119,0.78303 0.94423,0.25333 1.91149,0.25333 1.75029,0 2.51028,-0.55272 0.75999,-0.55273 0.75999,-1.58908 0,-0.96726 -0.66787,-1.47392 -0.64484,-0.52969 -1.86543,-0.52969 h -1.98059 q -0.29939,0 -0.48363,-0.13818 -0.16121,-0.16121 -0.16121,-0.41454 0,-0.25333 0.16121,-0.39151 0.18424,-0.16121 0.48363,-0.16121 h 1.77332 q 1.05938,0 1.70422,-0.50666 0.66787,-0.52969 0.66787,-1.42787 0,-0.94423 -0.66787,-1.49695 -0.66787,-0.55272 -2.1418,-0.55272 -0.96726,0 -1.8424,0.2303 -0.85211,0.2303 -1.6121,0.71393 -0.34545,0.18424 -0.59878,0.13818 -0.2303,-0.0461 -0.34545,-0.25333 -0.11515,-0.20727 -0.0461,-0.4606 0.0691,-0.25333 0.34545,-0.41454 0.87514,-0.55272 1.93452,-0.82908 1.05938,-0.29939 2.25694,-0.29939 2.07271,0 3.08603,0.85211 1.01332,0.82908 1.01332,2.303 0,1.08242 -0.75999,1.81938 -0.73696,0.71393 -1.95755,0.85211 v -0.29939 q 1.35877,0.023 2.21088,0.80605 0.87514,0.75999 0.87514,1.98058 0,1.47393 -1.1515,2.3721 -1.1515,0.87514 -3.47754,0.87514 z m -16.76839,0 q -1.72725,0 -2.97088,-0.6909 -1.24362,-0.6909 -1.91149,-1.98059 -0.66787,-1.28968 -0.66787,-3.06299 0,-1.75028 0.66787,-3.03997 0.66787,-1.31271 1.8424,-2.04967 1.19757,-0.73696 2.74058,-0.73696 1.12847,0 1.98058,0.39151 0.87514,0.36848 1.47393,1.08241 0.62181,0.6909 0.94423,1.70422 0.32242,0.9903 0.32242,2.25695 0,0.32242 -0.18424,0.48363 -0.16121,0.16121 -0.4606,0.16121 h -8.31385 v -1.03635 h 8.08355 l -0.36848,0.29939 q 0,-1.33574 -0.39152,-2.25695 -0.39151,-0.94423 -1.17453,-1.45089 -0.75999,-0.50666 -1.88846,-0.50666 -1.26665,0 -2.14179,0.59878 -0.87515,0.57575 -1.31272,1.6121 -0.43757,1.01333 -0.43757,2.34907 v 0.11515 q 0,2.21088 1.08241,3.40844 1.08242,1.17454 3.03997,1.17454 0.85211,0 1.63513,-0.2303 0.80605,-0.2303 1.56605,-0.78303 0.2303,-0.16121 0.43757,-0.16121 0.2303,0 0.36848,0.11515 0.16121,0.11515 0.20727,0.2994 0.0691,0.16121 -0.023,0.36848 -0.0691,0.18424 -0.29939,0.34545 -0.73696,0.59878 -1.77332,0.9212 -1.03635,0.29939 -2.0727,0.29939 z m -17.43877,-0.0461 q -0.18424,0 -0.34545,-0.0691 -0.13818,-0.0691 -0.2303,-0.2303 -0.0691,-0.18424 -0.0691,-0.4606 v -9.99504 q 0,-0.34545 0.16121,-0.52969 0.18424,-0.18424 0.50666,-0.18424 0.29939,0 0.4606,0.18424 0.16121,0.18424 0.16121,0.52969 v 9.37323 h -0.55272 l 7.16234,-9.62656 q 0.16121,-0.20727 0.34545,-0.32242 0.18424,-0.13818 0.48363,-0.13818 0.20727,0 0.34545,0.0921 0.13818,0.0691 0.20727,0.2303 0.0921,0.16121 0.0921,0.43757 v 10.01807 q 0,0.32242 -0.18424,0.50666 -0.16121,0.18424 -0.4606,0.18424 -0.32242,0 -0.48363,-0.18424 -0.16121,-0.18424 -0.16121,-0.50666 v -9.37323 h 0.55272 l -7.18537,9.62656 q -0.13818,0.18424 -0.32242,0.29939 -0.18424,0.13818 -0.48363,0.13818 z m -13.20018,0 q -0.34545,0 -0.52969,-0.18424 -0.18424,-0.18424 -0.18424,-0.52969 v -10.01807 q 0,-0.36848 0.18424,-0.55272 0.18424,-0.18424 0.52969,-0.18424 0.32242,0 0.50666,0.18424 0.18424,0.18424 0.18424,0.55272 v 4.23753 h 6.60962 v -4.23753 q 0,-0.36848 0.18424,-0.55272 0.18424,-0.18424 0.50666,-0.18424 0.34545,0 0.52969,0.18424 0.18424,0.18424 0.18424,0.55272 v 10.01807 q 0,0.34545 -0.18424,0.52969 -0.18424,0.18424 -0.52969,0.18424 -0.32242,0 -0.50666,-0.18424 -0.18424,-0.18424 -0.18424,-0.52969 v -4.60601 h -6.60962 v 4.60601 q 0,0.34545 -0.18424,0.52969 -0.16121,0.18424 -0.50666,0.18424 z m -9.44916,0.0461 q -1.12847,0 -2.02664,-0.43757 -0.87514,-0.43757 -1.40483,-1.19756 -0.50666,-0.76 -0.50666,-1.70423 0,-1.24362 0.62181,-1.95755 0.62181,-0.71393 2.09573,-0.99029 1.47392,-0.29939 4.05329,-0.29939 h 0.99029 v 1.03635 h -0.96726 q -2.0727,0 -3.24724,0.18424 -1.1515,0.16121 -1.6121,0.62181 -0.4606,0.4606 -0.4606,1.28968 0,1.03635 0.71393,1.6812 0.71393,0.64484 1.93452,0.64484 0.9903,0 1.72726,-0.4606 0.75999,-0.48363 1.19756,-1.31272 0.43757,-0.82908 0.43757,-1.88846 v -2.62542 q 0,-1.54302 -0.62181,-2.23392 -0.62181,-0.71393 -1.98058,-0.71393 -0.87515,0 -1.70423,0.2303 -0.80605,0.2303 -1.72725,0.73696 -0.25333,0.13818 -0.4606,0.0921 -0.18424,-0.0461 -0.29939,-0.18424 -0.0921,-0.13818 -0.13818,-0.32242 -0.023,-0.20727 0.0691,-0.39151 0.0921,-0.18424 0.32242,-0.29939 0.96726,-0.52969 1.95755,-0.78302 1.01332,-0.27636 1.95756,-0.27636 1.35877,0 2.23391,0.4606 0.89817,0.4606 1.31271,1.3818 0.43757,0.9212 0.43757,2.3721 v 6.58659 q 0,0.34545 -0.16121,0.52969 -0.16121,0.18424 -0.48363,0.18424 -0.32242,0 -0.50666,-0.18424 -0.18424,-0.18424 -0.18424,-0.52969 v -2.11877 h 0.2303 q -0.20727,0.89818 -0.73696,1.54302 -0.52969,0.64484 -1.31271,0.99029 -0.78302,0.34545 -1.75029,0.34545 z m -16.00983,-0.0461 q -0.34545,0 -0.52969,-0.18424 -0.18424,-0.18424 -0.18424,-0.52969 v -10.01807 q 0,-0.36848 0.18424,-0.55272 0.18424,-0.18424 0.52969,-0.18424 0.32242,0 0.50666,0.18424 0.18424,0.18424 0.18424,0.55272 v 4.23753 h 6.60963 v -4.23753 q 0,-0.36848 0.18424,-0.55272 0.18424,-0.18424 0.50666,-0.18424 0.34545,0 0.52969,0.18424 0.18424,0.18424 0.18424,0.55272 v 10.01807 q 0,0.34545 -0.18424,0.52969 -0.18424,0.18424 -0.52969,0.18424 -0.32242,0 -0.50666,-0.18424 -0.18424,-0.18424 -0.18424,-0.52969 v -4.60601 h -6.60963 v 4.60601 q 0,0.34545 -0.18424,0.52969 -0.16121,0.18424 -0.50666,0.18424 z m -8.41351,0.0461 q -1.19756,0 -2.34907,-0.29939 -1.12847,-0.29939 -1.88846,-0.87514 -0.2303,-0.16121 -0.32242,-0.34545 -0.0691,-0.20727 -0.023,-0.39151 0.0461,-0.18425 0.16121,-0.2994 0.13818,-0.13818 0.34545,-0.13818 0.2303,-0.023 0.4606,0.16121 0.73696,0.5297 1.68119,0.78303 0.94424,0.25333 1.9115,0.25333 1.75028,0 2.51027,-0.55272 0.75999,-0.55273 0.75999,-1.58908 0,-0.96726 -0.66787,-1.47392 -0.64484,-0.52969 -1.86543,-0.52969 h -1.98058 q -0.29939,0 -0.48363,-0.13818 -0.16122,-0.16121 -0.16122,-0.41454 0,-0.25333 0.16122,-0.39151 0.18424,-0.16121 0.48363,-0.16121 h 1.77331 q 1.05938,0 1.70422,-0.50666 0.66787,-0.52969 0.66787,-1.42787 0,-0.94423 -0.66787,-1.49695 -0.66787,-0.55272 -2.14179,-0.55272 -0.96726,0 -1.8424,0.2303 -0.85212,0.2303 -1.61211,0.71393 -0.34545,0.18424 -0.59878,0.13818 -0.2303,-0.0461 -0.34545,-0.25333 -0.11515,-0.20727 -0.0461,-0.4606 0.0691,-0.25333 0.34545,-0.41454 0.87514,-0.55272 1.93452,-0.82908 1.05939,-0.29939 2.25695,-0.29939 2.0727,0 3.08602,0.85211 1.01333,0.82908 1.01333,2.303 0,1.08242 -0.76,1.81938 -0.73696,0.71393 -1.95755,0.85211 v -0.29939 q 1.35877,0.023 2.21088,0.80605 0.87515,0.75999 0.87515,1.98058 0,1.47393 -1.15151,2.3721 -1.1515,0.87514 -3.47753,0.87514 z m -16.7684,0 q -1.72725,0 -2.97087,-0.6909 -1.24362,-0.6909 -1.91149,-1.98059 -0.66788,-1.28968 -0.66788,-3.06299 0,-1.75028 0.66788,-3.03997 0.66787,-1.31271 1.8424,-2.04967 1.19756,-0.73696 2.74057,-0.73696 1.12848,0 1.98059,0.39151 0.87514,0.36848 1.47392,1.08241 0.62181,0.6909 0.94423,1.70422 0.32242,0.9903 0.32242,2.25695 0,0.32242 -0.18424,0.48363 -0.16121,0.16121 -0.4606,0.16121 h -8.31384 v -1.03635 h 8.08354 l -0.36848,0.29939 q 0,-1.33574 -0.39151,-2.25695 -0.39151,-0.94423 -1.17453,-1.45089 -0.75999,-0.50666 -1.88847,-0.50666 -1.26665,0 -2.14179,0.59878 -0.87514,0.57575 -1.31271,1.6121 -0.43757,1.01333 -0.43757,2.34907 v 0.11515 q 0,2.21088 1.08241,3.40844 1.08241,1.17454 3.03996,1.17454 0.85212,0 1.63514,-0.2303 0.80605,-0.2303 1.56604,-0.78303 0.2303,-0.16121 0.43757,-0.16121 0.2303,0 0.36848,0.11515 0.16121,0.11515 0.20727,0.2994 0.0691,0.16121 -0.023,0.36848 -0.0691,0.18424 -0.29939,0.34545 -0.73696,0.59878 -1.77331,0.9212 -1.03635,0.29939 -2.07271,0.29939 z m -13.18901,0 q -1.56604,0 -2.71755,-0.71393 -1.1515,-0.71393 -1.79634,-2.00362 -0.62181,-1.28968 -0.62181,-3.06299 0,-1.31271 0.34545,-2.3721 0.36848,-1.05938 1.03635,-1.81937 0.6909,-0.78302 1.63513,-1.17453 0.96727,-0.41454 2.11877,-0.41454 1.58907,0 2.74057,0.71393 1.1515,0.71393 1.77332,2.02664 0.64484,1.28969 0.64484,3.03997 0,1.33574 -0.36848,2.39512 -0.34545,1.05938 -1.03636,1.81938 -0.66787,0.75999 -1.6121,1.17453 -0.94423,0.39151 -2.14179,0.39151 z m 0,-1.17453 q 1.1515,0 1.98058,-0.52969 0.85211,-0.55273 1.28968,-1.58908 0.4606,-1.03635 0.4606,-2.48724 0,-2.18786 -1.01332,-3.38542 -0.99029,-1.19756 -2.71754,-1.19756 -1.12847,0 -1.98059,0.55272 -0.82908,0.52969 -1.28968,1.56604 -0.43757,1.01333 -0.43757,2.46422 0,2.21088 1.01332,3.40844 1.01333,1.19757 2.69452,1.19757 z m -17.00013,1.12847 q -0.34545,0 -0.52969,-0.18424 -0.18424,-0.18424 -0.18424,-0.52969 v -10.01807 q 0,-0.36848 0.18424,-0.55272 0.18424,-0.18424 0.52969,-0.18424 0.32243,0 0.50667,0.18424 0.18424,0.18424 0.18424,0.55272 v 4.23753 h 6.60962 v -4.23753 q 0,-0.36848 0.18424,-0.55272 0.18424,-0.18424 0.50666,-0.18424 0.34545,0 0.52969,0.18424 0.18424,0.18424 0.18424,0.55272 v 10.01807 q 0,0.34545 -0.18424,0.52969 -0.18424,0.18424 -0.52969,0.18424 -0.32242,0 -0.50666,-0.18424 -0.18424,-0.18424 -0.18424,-0.52969 v -4.60601 h -6.60962 v 4.60601 q 0,0.34545 -0.18424,0.52969 -0.16121,0.18424 -0.50667,0.18424 z M 135.7277,404.7125 q -0.39151,0 -0.59878,-0.18424 -0.18424,-0.20727 -0.18424,-0.57575 v -9.83383 q 0,-0.36848 0.18424,-0.55272 0.18424,-0.18424 0.52969,-0.18424 0.32242,0 0.50666,0.18424 0.18424,0.18424 0.18424,0.55272 v 3.54663 h 3.56966 q 2.09573,0 3.17814,0.9212 1.10544,0.9212 1.10544,2.57936 0,1.10544 -0.50666,1.9115 -0.48363,0.80605 -1.42786,1.22059 -0.94423,0.41454 -2.34906,0.41454 z m 0.62181,-1.08241 h 3.5236 q 1.3818,0 2.14179,-0.59878 0.78302,-0.59879 0.78302,-1.84241 0,-1.26665 -0.78302,-1.86543 -0.75999,-0.59878 -2.14179,-0.59878 h -3.5236 z m -5.99824,1.22059 q -0.32242,0 -0.50666,-0.18424 -0.18424,-0.18424 -0.18424,-0.52969 v -9.44232 h -4.97449 v 1.47392 q 0,1.88847 -0.16121,3.31633 -0.16121,1.40483 -0.52969,2.41815 -0.34545,1.01333 -0.94423,1.70423 -0.57576,0.6909 -1.47393,1.1515 -0.2303,0.11515 -0.43757,0.0691 -0.20727,-0.023 -0.34545,-0.16121 -0.13818,-0.13818 -0.18424,-0.32242 -0.0461,-0.18424 0.023,-0.39151 0.0921,-0.20727 0.34545,-0.32242 0.6909,-0.39151 1.1515,-0.96727 0.4606,-0.59878 0.73697,-1.47392 0.27636,-0.89817 0.36848,-2.11876 0.11515,-1.24362 0.11515,-2.94785 v -1.77331 q 0,-0.39151 0.20727,-0.59878 0.20727,-0.20727 0.59878,-0.20727 h 6.07993 q 0.39151,0 0.59878,0.20727 0.2303,0.20727 0.2303,0.59878 v 9.78777 q 0,0.34545 -0.18424,0.52969 -0.18424,0.18424 -0.52969,0.18424 z m -17.14119,0.0461 q -1.12847,0 -2.02664,-0.43757 -0.87514,-0.43757 -1.40483,-1.19756 -0.50666,-0.76 -0.50666,-1.70423 0,-1.24362 0.62181,-1.95755 0.62181,-0.71393 2.09573,-0.99029 1.47392,-0.29939 4.05329,-0.29939 h 0.99029 v 1.03635 h -0.96726 q -2.07271,0 -3.24724,0.18424 -1.1515,0.16121 -1.6121,0.62181 -0.4606,0.4606 -0.4606,1.28968 0,1.03635 0.71393,1.6812 0.71393,0.64484 1.93452,0.64484 0.99029,0 1.72726,-0.4606 0.75999,-0.48363 1.19756,-1.31272 0.43757,-0.82908 0.43757,-1.88846 v -2.62542 q 0,-1.54302 -0.62181,-2.23392 -0.62181,-0.71393 -1.98059,-0.71393 -0.87514,0 -1.70422,0.2303 -0.80605,0.2303 -1.72725,0.73696 -0.25333,0.13818 -0.4606,0.0921 -0.18424,-0.0461 -0.29939,-0.18424 -0.0921,-0.13818 -0.13818,-0.32242 -0.023,-0.20727 0.0691,-0.39151 0.0921,-0.18424 0.32242,-0.29939 0.96726,-0.52969 1.95755,-0.78302 1.01332,-0.27636 1.95755,-0.27636 1.35878,0 2.23392,0.4606 0.89817,0.4606 1.31271,1.3818 0.43757,0.9212 0.43757,2.3721 v 6.58659 q 0,0.34545 -0.16121,0.52969 -0.16121,0.18424 -0.48363,0.18424 -0.32242,0 -0.50666,-0.18424 -0.18424,-0.18424 -0.18424,-0.52969 V 402.018 h 0.2303 q -0.20727,0.89818 -0.73696,1.54302 -0.52969,0.64484 -1.31271,0.99029 -0.78303,0.34545 -1.75029,0.34545 z m -16.009837,-0.0461 q -0.345451,0 -0.529691,-0.18424 -0.18424,-0.18424 -0.18424,-0.52969 v -10.01807 q 0,-0.36848 0.18424,-0.55272 0.18424,-0.18424 0.529691,-0.18424 0.322421,0 0.506661,0.18424 0.18424,0.18424 0.18424,0.55272 v 4.23753 h 6.609626 v -4.23753 q 0,-0.36848 0.18424,-0.55272 0.18424,-0.18424 0.50666,-0.18424 0.34545,0 0.52969,0.18424 0.18424,0.18424 0.18424,0.55272 v 10.01807 q 0,0.34545 -0.18424,0.52969 -0.18424,0.18424 -0.52969,0.18424 -0.32242,0 -0.50666,-0.18424 -0.18424,-0.18424 -0.18424,-0.52969 v -4.60601 h -6.609626 v 4.60601 q 0,0.34545 -0.18424,0.52969 -0.16121,0.18424 -0.506661,0.18424 z m -9.043608,0.0461 q -1.566043,0 -2.717545,-0.71393 -1.151502,-0.71393 -1.796343,-2.00362 -0.621812,-1.28968 -0.621812,-3.06299 0,-1.31271 0.345451,-2.3721 0.368481,-1.05938 1.036352,-1.81937 0.690901,-0.78302 1.635133,-1.17453 0.967261,-0.41454 2.118764,-0.41454 1.589072,0 2.740574,0.71393 1.151502,0.71393 1.773314,2.02664 0.644841,1.28969 0.644841,3.03997 0,1.33574 -0.368481,2.39512 -0.345451,1.05938 -1.036352,1.81938 -0.667871,0.75999 -1.612103,1.17453 -0.944231,0.39151 -2.141793,0.39151 z m 0,-1.17453 q 1.151502,0 1.980583,-0.52969 0.852112,-0.55273 1.289682,-1.58908 0.460601,-1.03635 0.460601,-2.48724 0,-2.18786 -1.013322,-3.38542 -0.990291,-1.19756 -2.717544,-1.19756 -1.128472,0 -1.980584,0.55272 -0.829081,0.52969 -1.289682,1.56604 -0.437571,1.01333 -0.437571,2.46422 0,2.21088 1.013322,3.40844 1.013322,1.19757 2.694515,1.19757 z m -15.515772,1.12847 q -0.34545,0 -0.52969,-0.18424 -0.184241,-0.18424 -0.184241,-0.52969 v -9.94898 q 0,-0.36848 0.184241,-0.55272 0.18424,-0.18424 0.52969,-0.18424 0.322421,0 0.506661,0.18424 0.184241,0.18424 0.184241,0.55272 v 4.16844 h 2.303004 l 3.661776,-4.58298 q 0.16121,-0.2303 0.368481,-0.27636 0.2303,-0.0691 0.414541,0 0.18424,0.0461 0.29939,0.20727 0.11515,0.16121 0.09212,0.39151 0,0.20727 -0.16121,0.43757 l -3.477536,4.35268 -0.483631,-0.43757 q 0.667871,0.0691 1.128472,0.29939 0.460601,0.2303 0.898172,0.75999 0.4606,0.52969 1.036351,1.47392 l 1.773314,2.90179 q 0.11515,0.2303 0.09212,0.43757 -0.02303,0.18424 -0.184241,0.34545 -0.13818,0.13818 -0.34545,0.16121 -0.184241,0.0461 -0.391511,-0.0461 -0.18424,-0.0691 -0.345451,-0.29939 l -1.934523,-3.20118 q -0.437571,-0.6909 -0.829081,-1.05938 -0.368481,-0.39151 -0.852112,-0.55272 -0.460601,-0.16121 -1.174532,-0.16121 h -1.888463 v 4.62904 q 0,0.34545 -0.184241,0.52969 -0.18424,0.18424 -0.506661,0.18424 z m -6.904334,0.0461 q -1.635133,0 -2.809665,-0.71393 -1.174532,-0.73696 -1.819373,-2.04968 -0.621811,-1.33574 -0.621811,-3.08602 0,-1.33574 0.345451,-2.3721 0.36848,-1.05938 1.036351,-1.79634 0.690902,-0.73696 1.658163,-1.12847 0.990292,-0.41454 2.210884,-0.41454 0.852112,0 1.750283,0.29939 0.898172,0.27636 1.635133,0.94423 0.161211,0.13818 0.207271,0.32242 0.04606,0.18424 -0.02303,0.36848 -0.06909,0.16121 -0.207271,0.27636 -0.13818,0.0921 -0.34545,0.11515 -0.184241,0 -0.391511,-0.18424 -0.644841,-0.52969 -1.312712,-0.71393 -0.644842,-0.20727 -1.266653,-0.20727 -0.944231,0 -1.658163,0.29939 -0.713931,0.29939 -1.220592,0.87514 -0.483631,0.57575 -0.736961,1.42786 -0.25333,0.82909 -0.25333,1.9115 0,2.16482 0.990291,3.40844 1.013322,1.2206 2.878755,1.2206 0.621811,0 1.266653,-0.18424 0.667871,-0.20727 1.312712,-0.73697 0.20727,-0.18424 0.391511,-0.16121 0.20727,0 0.34545,0.11515 0.13818,0.0921 0.184241,0.27637 0.06909,0.16121 0.02303,0.34545 -0.04606,0.18424 -0.207271,0.32242 -0.713931,0.66787 -1.612103,0.94423 -0.898171,0.27636 -1.750283,0.27636 z m -12.889625,0 q -1.566043,0 -2.717545,-0.71393 -1.151502,-0.71393 -1.796343,-2.00362 -0.621811,-1.28968 -0.621811,-3.06299 0,-1.31271 0.345451,-2.3721 0.36848,-1.05938 1.036351,-1.81937 0.690902,-0.78302 1.635133,-1.17453 0.967262,-0.41454 2.118764,-0.41454 1.589073,0 2.740575,0.71393 1.151502,0.71393 1.773313,2.02664 0.644841,1.28969 0.644841,3.03997 0,1.33574 -0.368481,2.39512 -0.34545,1.05938 -1.036351,1.81938 -0.667872,0.75999 -1.612103,1.17453 -0.944232,0.39151 -2.141794,0.39151 z m 0,-1.17453 q 1.151502,0 1.980583,-0.52969 0.852112,-0.55273 1.289683,-1.58908 0.460601,-1.03635 0.460601,-2.48724 0,-2.18786 -1.013322,-3.38542 -0.990292,-1.19756 -2.717545,-1.19756 -1.128472,0 -1.980584,0.55272 -0.829081,0.52969 -1.289682,1.56604 -0.437571,1.01333 -0.437571,2.46422 0,2.21088 1.013322,3.40844 1.013322,1.19757 2.694515,1.19757 z m -23.042277,4.67509 q -0.322421,0 -0.483631,-0.18424 -0.16121,-0.18424 -0.16121,-0.50666 v -3.47753 q 0,-0.73696 0.759991,-0.73696 h 1.450893 l -0.829082,0.2303 q 1.335743,-1.54302 1.980584,-4.23753 0.667871,-2.71755 0.667871,-6.83992 v -3.36239 q 0,-0.39151 0.20727,-0.59878 0.207271,-0.20727 0.575751,-0.20727 H 42.8166 q 0.391511,0 0.598781,0.20727 0.20727,0.20727 0.20727,0.59878 v 14.78529 L 43.0469,403.49191 h 2.118764 q 0.368481,0 0.552721,0.18424 0.20727,0.18424 0.20727,0.55272 v 3.47753 q 0,0.6909 -0.644841,0.6909 -0.32242,0 -0.506661,-0.18424 -0.16121,-0.18424 -0.16121,-0.50666 v -2.9939 H 30.472498 v 2.9939 q 0,0.6909 -0.667871,0.6909 z m 2.441184,-4.90539 h 9.948978 v -13.795 h -7.669004 v 3.01694 q 0,3.89207 -0.552721,6.47144 -0.529691,2.57936 -1.727253,4.30662 z m -20.403536,-4.42177 q -0.2303,0 -0.391511,-0.13818 -0.16121,-0.13818 -0.16121,-0.34545 0,-0.2303 0.16121,-0.34545 0.161211,-0.13818 0.391511,-0.13818 h 10.685939 q 0.2303,0 0.391511,0.13818 0.16121,0.11515 0.16121,0.34545 0,0.20727 -0.16121,0.34545 -0.161211,0.13818 -0.391511,0.13818 z M 185.18917,260.02174 41.220516,378.30599 108.39722,433.50366 v 67.43719 c 0,19.7391 34.50463,35.61895 77.35759,35.61895 42.85291,0 77.34304,-15.87985 77.34304,-35.61895 v -66.52312 l 59.64969,-49.01951 V 506.8004 h 6.62779 V 379.95961 l 0.89913,-0.7387 -0.89913,-0.74215 -1.5952,-1.30704 z"
         inkscape:connector-curvature="0" />
    </g>
  </g>
</svg>
