<?xml version="1.0" encoding="UTF-8" standalone="no"?>
<!-- Created with Inkscape (http://www.inkscape.org/) -->

<svg
   width="19.832684mm"
   height="17.353598mm"
   viewBox="0 0 19.832684 17.353598"
   version="1.1"
   id="svg2894"
   xmlns="http://www.w3.org/2000/svg"
   xmlns:svg="http://www.w3.org/2000/svg">
  <defs
     id="defs2891" />
  <g
     id="layer1"
     transform="translate(-81.952302,-89.484215)">
    <g
       aria-label=""
       transform="matrix(0.86116728,0,0,0.86116728,-86.015685,-322.03594)"
       id="flowRoot835"
       style="font-weight:bold;font-size:23.03px;line-height:1;font-family:'last ninja';-inkscape-font-specification:'last ninja Bold';letter-spacing:0px;word-spacing:0px;baseline-shift:baseline;vector-effect:none;fill:#2c2f37;stroke-width:0.176893">
      <path
         d="m 200.80438,496.62075 v -10.07563 c 0,-0.80965 -0.67471,-1.43937 -1.43938,-1.43937 h -2.87875 c -0.80965,0 -1.43938,0.67471 -1.43938,1.43937 v 10.03065 c 0,0.76467 0.62973,1.39439 1.43938,1.39439 h 2.87875 c 0.76467,0.09 1.43938,-0.53976 1.43938,-1.34941 z m 17.2725,-10.03065 c 0,-1.21447 -0.98957,-2.15906 -2.15907,-2.15906 h -6.61213 c 1.03455,-1.70926 1.57432,-3.64342 1.57432,-4.31812 0,-1.07954 -0.85463,-2.20405 -2.24902,-2.20405 -2.83377,0 -1.1695,3.4635 -4.85789,6.38723 l -0.71969,0.58475 c -0.53977,0.4498 -0.80965,1.03455 -0.80965,1.66427 0,0.045 0,0 0,0 v 7.19688 c 0,0.71969 0.31486,1.34941 0.85463,1.75424 l 1.52934,1.12451 c 1.25945,0.94459 2.7438,1.43937 4.31812,1.43937 h 2.65385 c 1.16949,0 2.15906,-0.94459 2.15906,-2.11408 0,-0.17992 -0.045,-0.35984 -0.09,-0.49478 0.89961,-0.26989 1.52934,-1.07953 1.52934,-2.06911 0,-0.40482 -0.13495,-0.76466 -0.35985,-1.07953 1.03455,-0.2249 1.79922,-1.07953 1.79922,-2.11408 0,-0.58474 -0.2249,-1.07953 -0.58475,-1.48435 1.12452,-0.045 2.02413,-0.98957 2.02413,-2.11409 z"
         id="path2931" />
    </g>
  </g>
</svg>
