<?xml version="1.0" encoding="UTF-8" standalone="no"?>
<!-- Created with Inkscape (http://www.inkscape.org/) -->

<svg
   width="14.311501mm"
   height="16.356001mm"
   viewBox="0 0 14.311501 16.356001"
   version="1.1"
   id="svg3065"
   xmlns="http://www.w3.org/2000/svg"
   xmlns:svg="http://www.w3.org/2000/svg">
  <defs
     id="defs3062" />
  <g
     id="layer1"
     transform="translate(-145.11967,-101.30929)">
    <g
       aria-label=""
       id="text817"
       style="font-weight:bold;font-size:16.356px;line-height:1;font-family:'last ninja';-inkscape-font-specification:'last ninja Bold';letter-spacing:0px;word-spacing:0px;baseline-shift:baseline;vector-effect:none;fill:#2c2f37;stroke-width:0.152334">
      <path
         d="m 155.1505,108.30531 q -1.18197,1.18198 -2.87507,1.18198 -1.69311,0 -2.90703,-1.18198 -1.18198,-1.21392 -1.18198,-2.90702 0,-1.6931 1.18198,-2.87508 1.21392,-1.21392 2.90703,-1.21392 1.6931,0 2.87507,1.21392 1.21393,1.18198 1.21393,2.87508 0,1.6931 -1.21393,2.90702 z m -1.24586,2.71535 q 2.26811,0 3.89732,1.62921 1.62922,1.62922 1.62922,3.89733 0,0.47918 -0.31946,0.79864 -0.31945,0.31945 -0.79863,0.31945 h -12.07533 q -0.47918,0 -0.79863,-0.31945 -0.31946,-0.31946 -0.31946,-0.79864 0,-2.26811 1.62922,-3.89733 1.62921,-1.62921 3.89732,-1.62921 z"
         style="font-family:'Font Awesome 6 Pro';-inkscape-font-specification:'Font Awesome 6 Pro Bold'"
         id="path3086" />
    </g>
  </g>
</svg>
