<?xml version="1.0" encoding="UTF-8" standalone="no"?>
<!-- Created with Inkscape (http://www.inkscape.org/) -->

<svg
   width="18.290501mm"
   height="12.193667mm"
   viewBox="0 0 18.290501 12.193667"
   version="1.1"
   id="svg3014"
   xmlns="http://www.w3.org/2000/svg"
   xmlns:svg="http://www.w3.org/2000/svg">
  <defs
     id="defs3011" />
  <g
     id="layer1"
     transform="translate(-120.0413,-174.57828)">
    <g
       aria-label=""
       transform="matrix(0.70595845,0,0,0.70595845,-19.218661,-116.06553)"
       id="flowRoot827"
       style="font-weight:bold;font-size:23.03px;line-height:1;font-family:'last ninja';-inkscape-font-specification:'last ninja Bold';letter-spacing:0px;word-spacing:0px;baseline-shift:baseline;vector-effect:none;fill:#2c2f37;stroke-width:0.215783">
      <path
         d="m 214.53617,413.86008 v 12.95437 c 0,1.21448 -0.98957,2.15907 -2.15906,2.15907 h -12.95438 c -1.21447,0 -2.15906,-0.94459 -2.15906,-2.15907 v -12.95437 c 0,-1.16949 0.94459,-2.15906 2.15906,-2.15906 h 12.95438 c 1.16949,0 2.15906,0.98957 2.15906,2.15906 z m 8.63625,0.71969 v 11.55998 c 0,1.12451 -1.34941,1.79922 -2.294,1.16949 l -4.90287,-3.41852 v -7.06193 l 4.90287,-3.41852 c 0.94459,-0.62972 2.294,0.045 2.294,1.1695 z"
         id="path3043" />
    </g>
  </g>
</svg>
